<svg width="80" height="70" viewBox="0 0 80 70" fill="none" xmlns="http://www.w3.org/2000/svg">
<path d="M79.9896 34.6948V34.674C79.9958 34.6469 80 34.6198 80 34.5906C80 34.5635 79.9958 34.5365 79.9896 34.5094C79.9896 34.5094 79.9896 34.4948 79.9896 34.4885C79.9833 34.4677 79.975 34.449 79.9667 34.4302C79.9667 34.426 79.9667 34.4198 79.9667 34.4156L60.1313 0.161459V0.151042C60.1208 0.132291 60.1063 0.115625 60.0917 0.101042C60.0875 0.0947917 60.0833 0.0885416 60.0771 0.0843752C60.0563 0.0656248 60.0333 0.0468749 60.0104 0.0343752C59.9813 0.0197917 59.9521 0.00937533 59.9208 0.0031252C59.9146 0.001042 59.9083 0.001042 59.9 0.0031252C59.8792 -0.00104173 59.8583 -0.00104173 59.8375 0.0031252H20.1563C20.1333 -0.00104173 20.1125 -0.00104173 20.0917 0.0031252C20.0854 0.001042 20.0771 0.001042 20.0708 0.0031252C20.0438 0.00937533 20.0188 0.0197917 19.9938 0.0343752C19.9688 0.0468749 19.9479 0.0656248 19.9271 0.0843752C19.9208 0.0906253 19.9167 0.0947917 19.9104 0.101042C19.8958 0.115625 19.8833 0.134375 19.8729 0.151042V0.161459L0.0354167 34.4156C0.0354167 34.4198 0.0354167 34.426 0.0354167 34.4302C0.0249996 34.449 0.0166669 34.4677 0.0125 34.4885C0.0125 34.4885 0.0125 34.501 0.0125 34.5094C0.00416667 34.5365 0 34.5635 0 34.5906C0 34.6198 0.00416667 34.6469 0.0125 34.674V34.6948C0.0166669 34.7156 0.0249996 34.7365 0.0354167 34.7552C0.0354167 34.7552 0.0354167 34.7635 0.0354167 34.7677L19.8625 69.0219V69.0344C19.875 69.051 19.8875 69.0677 19.9021 69.0844L19.9188 69.101C19.9375 69.1198 19.9604 69.1365 19.9854 69.151C20.0104 69.1635 20.0354 69.174 20.0625 69.1823C20.0938 69.1906 20.1229 69.1948 20.1542 69.1948H59.8167C59.8479 69.1948 59.8771 69.1906 59.9083 69.1823C59.9354 69.174 59.9604 69.1635 59.9854 69.151C60.0104 69.1365 60.0313 69.1198 60.0521 69.101L60.0667 69.0844C60.0813 69.0677 60.0938 69.051 60.1063 69.0344V69.0219L79.9604 34.7677C79.9604 34.7677 79.9604 34.7594 79.9604 34.7552C79.9729 34.7365 79.9813 34.7156 79.9896 34.6948ZM59.8271 68.1448L40.6125 34.9427H79.0396L59.8271 68.1448ZM20.1708 1.04063L39.3833 34.2406H0.952083L20.1708 1.04063ZM40.0021 33.8885L20.7896 0.690625H59.2167L40.0021 33.8885ZM40.0021 35.2948L59.2167 68.4948H20.7896L40.0021 35.2948ZM40.6146 34.2406L41.65 32.451C41.6542 32.4719 41.6583 32.4927 41.6667 32.5135C41.7104 32.6156 41.7896 32.6677 41.9021 32.6677C42.0125 32.6677 42.0917 32.6156 42.1354 32.5135C42.1479 32.4823 42.1542 32.449 42.1542 32.4156C42.1542 32.3635 42.1396 32.3177 42.1104 32.274C42.0604 32.199 41.9917 32.1615 41.9021 32.1615C41.8667 32.1615 41.8354 32.1698 41.8042 32.1823L44.4479 27.6115C44.4604 27.6135 44.4708 27.6135 44.4833 27.6115C44.5417 27.599 44.5917 27.5698 44.6292 27.524C44.6667 27.4781 44.6854 27.424 44.6854 27.3635C44.6854 27.326 44.675 27.2885 44.6583 27.2552L48.1271 21.2615C48.1625 21.2781 48.2 21.2865 48.2396 21.2885C48.3104 21.2885 48.3708 21.2635 48.4188 21.2135C48.4688 21.1635 48.4938 21.1052 48.4938 21.0344C48.4938 20.9448 48.4563 20.874 48.3813 20.824L51.8396 14.8469C51.8896 14.9198 51.9583 14.9552 52.0479 14.9552C52.1146 14.9531 52.1708 14.9281 52.2167 14.8823C52.2646 14.8344 52.2896 14.7781 52.2917 14.7115C52.2938 14.6448 52.275 14.5865 52.2313 14.5365C52.1875 14.4865 52.1333 14.4573 52.0667 14.451L54.7417 9.83229C54.7938 9.79063 54.825 9.73646 54.8333 9.66771L55.6063 8.33646C55.6063 8.34688 55.6063 8.35729 55.6063 8.36771C55.6063 8.43646 55.6313 8.49688 55.6813 8.54688C55.7313 8.59479 55.7896 8.61979 55.8604 8.61979C55.9313 8.61979 55.9896 8.59479 56.0396 8.54688C56.0896 8.49688 56.1146 8.43646 56.1146 8.36771C56.1146 8.29688 56.0896 8.23854 56.0396 8.18854C55.9896 8.13854 55.9313 8.11354 55.8604 8.11354C55.8042 8.11354 55.7542 8.13021 55.7083 8.16563L58.3771 3.55521H58.3979C58.5042 3.55521 58.5792 3.50938 58.6271 3.41563C58.6729 3.32396 58.6646 3.23438 58.6021 3.15104L59.8271 1.04063L60.9917 3.05521C60.9729 3.05313 60.9521 3.05313 60.9333 3.05521C60.8688 3.05313 60.8104 3.07604 60.7625 3.11979C60.7125 3.16354 60.6854 3.21771 60.6792 3.28229C60.6729 3.34688 60.6875 3.40521 60.7271 3.45938C60.7667 3.51146 60.8188 3.54271 60.8833 3.55521C60.9479 3.56771 61.0083 3.55729 61.0646 3.52396C61.1188 3.48854 61.1563 3.44063 61.175 3.37813L64.6604 9.39688H64.6417C64.5396 9.44271 64.4875 9.51979 64.4875 9.63229C64.4875 9.74271 64.5396 9.82188 64.6417 9.86563C64.6729 9.87813 64.7063 9.88438 64.7417 9.88438C64.7917 9.88438 64.8396 9.86979 64.8813 9.84271C64.8917 9.84271 64.9 9.82604 64.9083 9.81979L68.3625 15.7969C68.2875 15.8781 68.2729 15.9698 68.3167 16.0698C68.3604 16.1719 68.4375 16.2219 68.5479 16.2219C68.5667 16.226 68.5854 16.226 68.6042 16.2219L72.1083 22.2719C72.0958 22.3177 72.1 22.3615 72.1208 22.4052C72.15 22.4677 72.1958 22.5115 72.2604 22.5385L74.9042 27.1198H74.8875C74.8521 27.1198 74.8208 27.126 74.7875 27.1406C74.6854 27.1844 74.6333 27.2615 74.6333 27.374C74.6333 27.4844 74.6854 27.5635 74.7875 27.6073C74.8208 27.6198 74.8521 27.626 74.8875 27.626C74.9375 27.626 74.9854 27.6115 75.0292 27.5844C75.0667 27.5573 75.0958 27.524 75.1146 27.4844L78.5833 33.476C78.4625 33.5344 78.4167 33.6302 78.4458 33.7615C78.4771 33.8906 78.5604 33.9573 78.6938 33.9552C78.7458 33.9552 78.7938 33.9406 78.8354 33.9135L79.0375 34.2656L40.6146 34.2406Z" fill="#191919"/>
<path d="M77.4333 32.1594C77.3416 32.1614 77.2708 32.1989 77.2208 32.2719C77.1708 32.3489 77.1624 32.4281 77.1958 32.5114C77.2395 32.6135 77.3187 32.6656 77.4291 32.6656C77.5416 32.6656 77.6187 32.6135 77.6645 32.5114C77.677 32.4802 77.6854 32.4469 77.6854 32.4135C77.6854 32.3614 77.6708 32.3156 77.6416 32.2719C77.5916 32.1989 77.5208 32.1614 77.4333 32.1594Z" fill="#191919"/>
<path d="M76.1622 30.8969C76.0935 30.8969 76.0331 30.9198 75.9831 30.9698C75.9352 31.0198 75.9102 31.0781 75.9102 31.1489C75.9102 31.2177 75.9331 31.2781 75.9831 31.3281C76.0331 31.3781 76.0914 31.401 76.1622 31.4031C76.231 31.4031 76.2914 31.3781 76.3414 31.3302C76.3914 31.2802 76.4164 31.2198 76.4164 31.151C76.4185 31.0802 76.3935 31.0198 76.3435 30.9698C76.2935 30.9219 76.2331 30.8969 76.1622 30.8969Z" fill="#191919"/>
<path d="M75.0356 32.2052C74.994 32.1781 74.946 32.1614 74.894 32.1614C74.8523 32.1614 74.8127 32.1719 74.7752 32.1927C74.7377 32.2135 74.7065 32.2406 74.6835 32.276C74.6606 32.3114 74.646 32.3489 74.6419 32.3906C74.6377 32.4344 74.644 32.4739 74.6606 32.5135C74.6877 32.576 74.7315 32.6219 74.796 32.6489C74.8273 32.6614 74.8606 32.6677 74.894 32.6677C74.946 32.6677 74.9919 32.6552 75.0356 32.626C75.0773 32.5969 75.1085 32.5594 75.1273 32.5135C75.1419 32.4823 75.1481 32.4489 75.1481 32.4156C75.1481 32.3635 75.1335 32.3177 75.1044 32.2739C75.0856 32.2469 75.0627 32.2239 75.0356 32.2052Z" fill="#191919"/>
<path d="M75.0363 29.6739C74.9947 29.6448 74.9467 29.6302 74.8947 29.6302C74.8613 29.6302 74.828 29.6364 74.7967 29.651C74.6926 29.6948 74.6426 29.7719 74.6426 29.8844C74.6426 29.9948 74.6926 30.0739 74.7967 30.1177C74.828 30.1302 74.8613 30.1385 74.8947 30.1385C74.9467 30.1385 74.9947 30.1239 75.0363 30.0948C75.0717 30.0698 75.0988 30.0406 75.1197 30.0031C75.1384 29.9656 75.1488 29.926 75.1488 29.8844C75.1488 29.8427 75.1384 29.8031 75.1197 29.7656C75.0988 29.7281 75.0717 29.6969 75.0363 29.6739Z" fill="#191919"/>
<path d="M76.1622 33.4281C76.0935 33.4281 76.0331 33.4531 75.9831 33.501C75.9352 33.551 75.9102 33.6114 75.9102 33.6802C75.9102 33.751 75.9331 33.8094 75.9831 33.8594C76.0331 33.9094 76.0914 33.9344 76.1622 33.9344C76.231 33.9344 76.2914 33.9094 76.3414 33.8614C76.3914 33.8114 76.4164 33.7531 76.4164 33.6823C76.4185 33.6114 76.3935 33.5531 76.3435 33.5031C76.2935 33.4531 76.2331 33.4281 76.1622 33.4281Z" fill="#191919"/>
<path d="M71.0882 20.7698C71.0173 20.7698 70.9569 20.7948 70.909 20.8427C70.859 20.8927 70.834 20.9531 70.834 21.0219C70.834 21.0927 70.859 21.151 70.909 21.201C70.9569 21.251 71.0173 21.276 71.0882 21.276C71.1569 21.276 71.2173 21.251 71.2673 21.201C71.3173 21.151 71.3402 21.0927 71.3402 21.0219C71.3402 20.9531 71.3173 20.8927 71.2673 20.8427C71.2173 20.7948 71.1569 20.7698 71.0882 20.7698Z" fill="#191919"/>
<path d="M69.8158 22.0344C69.7742 22.0344 69.7346 22.0448 69.6971 22.0656C69.6596 22.0864 69.6304 22.1135 69.6054 22.1489C69.5825 22.1844 69.5679 22.2219 69.5637 22.2656C69.5596 22.3073 69.5658 22.3469 69.5825 22.3864C69.6262 22.4885 69.7033 22.5406 69.8158 22.5406C69.9283 22.5406 70.0054 22.4885 70.0492 22.3864C70.0637 22.3552 70.07 22.3219 70.07 22.2885C70.07 22.2364 70.0554 22.1906 70.0262 22.1469C69.9762 22.0739 69.9075 22.0364 69.8158 22.0344Z" fill="#191919"/>
<path d="M69.8165 19.501C69.7478 19.501 69.6874 19.526 69.6374 19.576C69.5895 19.626 69.5645 19.6844 69.5645 19.7552C69.5645 19.824 69.5895 19.8844 69.6374 19.9344C69.6874 19.9823 69.7478 20.0073 69.8165 20.0073C69.8874 20.0073 69.9478 19.9823 69.9978 19.9344C70.0457 19.8844 70.0707 19.824 70.0707 19.7552C70.0707 19.6844 70.0457 19.626 69.9978 19.576C69.9478 19.526 69.8874 19.501 69.8165 19.501Z" fill="#191919"/>
<path d="M72.3557 27.0989C72.2849 27.0989 72.2245 27.1239 72.1766 27.1719C72.1266 27.2219 72.1016 27.2823 72.1016 27.351C72.1016 27.4219 72.1266 27.4802 72.1766 27.5302C72.2245 27.5802 72.2849 27.6052 72.3557 27.6052C72.4266 27.6052 72.4849 27.5802 72.5349 27.5302C72.5849 27.4802 72.6099 27.4219 72.6099 27.351C72.6099 27.2823 72.5849 27.2219 72.5349 27.1719C72.4849 27.1239 72.4266 27.0989 72.3557 27.0989Z" fill="#191919"/>
<path d="M72.3557 24.5677C72.2849 24.5677 72.2245 24.5906 72.1766 24.6406C72.1266 24.6906 72.1016 24.751 72.1016 24.8198C72.1016 24.8906 72.1266 24.9489 72.1766 24.9989C72.2245 25.0489 72.2849 25.0739 72.3557 25.0739C72.4266 25.0739 72.4849 25.0489 72.5349 24.9989C72.5849 24.9489 72.6099 24.8906 72.6099 24.8198C72.6099 24.751 72.5849 24.6906 72.5349 24.6406C72.4849 24.5906 72.4266 24.5677 72.3557 24.5677Z" fill="#191919"/>
<path d="M71.0882 25.8302C71.0173 25.8302 70.9569 25.8552 70.909 25.9052C70.859 25.9552 70.834 26.0135 70.834 26.0844C70.834 26.1531 70.859 26.2135 70.909 26.2635C70.9569 26.3115 71.0173 26.3365 71.0882 26.3365C71.1569 26.3365 71.2173 26.3115 71.2673 26.2635C71.3173 26.2135 71.3402 26.1531 71.3402 26.0844C71.3402 26.0135 71.3173 25.9552 71.2673 25.9052C71.2173 25.8552 71.1569 25.8302 71.0882 25.8302Z" fill="#191919"/>
<path d="M73.6253 25.8302C73.5544 25.8302 73.4961 25.8552 73.4461 25.9052C73.3961 25.9552 73.3711 26.0135 73.3711 26.0844C73.3711 26.1531 73.3961 26.2135 73.4461 26.2635C73.4961 26.3115 73.5544 26.3365 73.6253 26.3365C73.6961 26.3365 73.7544 26.3115 73.8044 26.2635C73.8544 26.2135 73.8794 26.1531 73.8794 26.0844C73.8794 26.0135 73.8544 25.9552 73.8044 25.9052C73.7544 25.8552 73.6961 25.8302 73.6253 25.8302Z" fill="#191919"/>
<path d="M71.0882 23.301C71.0173 23.301 70.9569 23.326 70.909 23.376C70.859 23.4239 70.834 23.4844 70.834 23.5531C70.834 23.6239 70.859 23.6844 70.909 23.7323C70.9569 23.7823 71.0173 23.8073 71.0882 23.8073C71.1569 23.8073 71.2173 23.7823 71.2673 23.7323C71.3173 23.6844 71.3402 23.6239 71.3402 23.5531C71.3402 23.4844 71.3173 23.4239 71.2673 23.376C71.2173 23.326 71.1569 23.301 71.0882 23.301Z" fill="#191919"/>
<path d="M69.8165 27.0989C69.7478 27.0989 69.6874 27.1239 69.6374 27.1719C69.5895 27.2219 69.5645 27.2823 69.5645 27.351C69.5645 27.4219 69.5895 27.4802 69.6374 27.5302C69.6874 27.5802 69.7478 27.6052 69.8165 27.6052C69.8874 27.6052 69.9478 27.5802 69.9978 27.5302C70.0457 27.4802 70.0707 27.4219 70.0707 27.351C70.0707 27.2823 70.0457 27.2219 69.9978 27.1719C69.9478 27.1239 69.8874 27.0989 69.8165 27.0989Z" fill="#191919"/>
<path d="M69.8165 24.5677C69.7478 24.5677 69.6874 24.5906 69.6374 24.6406C69.5895 24.6906 69.5645 24.751 69.5645 24.8198C69.5645 24.8906 69.5895 24.9489 69.6374 24.9989C69.6874 25.0489 69.7478 25.0739 69.8165 25.0739C69.8874 25.0739 69.9478 25.0489 69.9978 24.9989C70.0457 24.9489 70.0707 24.8906 70.0707 24.8198C70.0707 24.751 70.0457 24.6906 69.9978 24.6406C69.9478 24.5906 69.8874 24.5677 69.8165 24.5677Z" fill="#191919"/>
<path d="M72.3558 32.1594C72.2662 32.1614 72.1954 32.1989 72.1433 32.2719C72.0933 32.3489 72.087 32.4281 72.1204 32.5114C72.1641 32.6135 72.2433 32.6656 72.3537 32.6656C72.4662 32.6656 72.5454 32.6135 72.5891 32.5114C72.6016 32.4802 72.6099 32.4469 72.6099 32.4135C72.6099 32.3614 72.5954 32.3156 72.5662 32.2719C72.5141 32.1989 72.4454 32.1614 72.3558 32.1594Z" fill="#191919"/>
<path d="M72.356 29.6302C72.2852 29.6302 72.2247 29.6552 72.1747 29.7031C72.1247 29.7531 72.0977 29.8135 72.0977 29.8844C72.0977 29.9552 72.1227 30.0156 72.1727 30.0656C72.2227 30.1156 72.2831 30.1406 72.3539 30.1406C72.4247 30.1406 72.4852 30.1156 72.5352 30.0635C72.5852 30.0135 72.6102 29.9531 72.6102 29.8844C72.6102 29.8135 72.5852 29.7531 72.5352 29.7052C72.4852 29.6552 72.4268 29.6302 72.356 29.6302Z" fill="#191919"/>
<path d="M71.0882 30.8969C71.0173 30.8969 70.9569 30.9198 70.909 30.9698C70.859 31.0198 70.834 31.0781 70.834 31.1489C70.834 31.2177 70.859 31.2781 70.9069 31.3281C70.9569 31.3781 71.0173 31.401 71.0861 31.4031C71.1569 31.4031 71.2152 31.3781 71.2652 31.3302C71.3152 31.2802 71.3402 31.2198 71.3402 31.151C71.3423 31.0802 71.3173 31.0198 71.2673 30.9698C71.2173 30.9219 71.1569 30.8969 71.0882 30.8969Z" fill="#191919"/>
<path d="M73.6253 30.8969C73.5544 30.8969 73.4961 30.9198 73.4461 30.9698C73.3961 31.0198 73.3711 31.0781 73.3711 31.1489C73.3711 31.2177 73.3961 31.2781 73.4461 31.3281C73.494 31.3781 73.5544 31.401 73.6253 31.4031C73.694 31.4031 73.7544 31.3781 73.8044 31.3302C73.8544 31.2802 73.8794 31.2198 73.8794 31.151C73.8794 31.0802 73.8544 31.0198 73.8065 30.9698C73.7565 30.9219 73.6961 30.8969 73.6253 30.8969Z" fill="#191919"/>
<path d="M71.0882 28.3635C71.0173 28.3635 70.9569 28.3885 70.909 28.4385C70.859 28.4885 70.834 28.5469 70.834 28.6177C70.834 28.6864 70.859 28.7469 70.909 28.7969C70.9569 28.8469 71.0173 28.8698 71.0882 28.8698C71.1569 28.8698 71.2173 28.8469 71.2673 28.7969C71.3173 28.7469 71.3402 28.6864 71.3402 28.6177C71.3402 28.5469 71.3173 28.4885 71.2673 28.4385C71.2173 28.3885 71.1569 28.3635 71.0882 28.3635Z" fill="#191919"/>
<path d="M73.6253 28.3635C73.5544 28.3635 73.4961 28.3885 73.4461 28.4385C73.3961 28.4885 73.3711 28.5469 73.3711 28.6177C73.3711 28.6864 73.3961 28.7469 73.4461 28.7969C73.4961 28.8469 73.5544 28.8698 73.6253 28.8698C73.6961 28.8698 73.7544 28.8469 73.8044 28.7969C73.8544 28.7469 73.8794 28.6864 73.8794 28.6177C73.8794 28.5469 73.8544 28.4885 73.8044 28.4385C73.7544 28.3885 73.6961 28.3635 73.6253 28.3635Z" fill="#191919"/>
<path d="M69.8175 32.1594C69.7279 32.1614 69.6571 32.1989 69.6071 32.2719C69.5571 32.3489 69.5487 32.4281 69.5841 32.5114C69.6279 32.6135 69.705 32.6656 69.8175 32.6656C69.93 32.6656 70.0071 32.6135 70.0508 32.5114C70.0654 32.4802 70.0716 32.4469 70.0716 32.4135C70.0716 32.3614 70.0571 32.3156 70.0279 32.2719C69.9779 32.1989 69.9091 32.1614 69.8175 32.1594Z" fill="#191919"/>
<path d="M69.8168 29.6302C69.746 29.6302 69.6855 29.6552 69.6355 29.7031C69.5855 29.7531 69.5605 29.8135 69.5605 29.8844C69.5605 29.9552 69.5855 30.0156 69.6355 30.0656C69.6855 30.1156 69.746 30.1406 69.8168 30.1406C69.8876 30.1406 69.948 30.1156 69.998 30.0635C70.048 30.0135 70.073 29.9531 70.071 29.8844C70.071 29.8135 70.046 29.7531 69.998 29.7052C69.948 29.6552 69.8876 29.6302 69.8168 29.6302Z" fill="#191919"/>
<path d="M71.0882 33.4281C71.0173 33.4281 70.9569 33.4531 70.909 33.501C70.859 33.551 70.834 33.6114 70.834 33.6802C70.834 33.751 70.859 33.8094 70.9069 33.8594C70.9569 33.9094 71.0173 33.9344 71.0861 33.9344C71.1569 33.9344 71.2152 33.9094 71.2652 33.8614C71.3152 33.8114 71.3402 33.7531 71.3402 33.6823C71.3423 33.6114 71.3173 33.5531 71.2673 33.5031C71.2173 33.4531 71.1569 33.4281 71.0882 33.4281Z" fill="#191919"/>
<path d="M73.6253 33.4281C73.5544 33.4281 73.4961 33.4531 73.4461 33.501C73.3961 33.551 73.3711 33.6114 73.3711 33.6802C73.3711 33.751 73.3961 33.8094 73.4461 33.8594C73.494 33.9094 73.5544 33.9344 73.6253 33.9344C73.694 33.9344 73.7544 33.9094 73.8044 33.8614C73.8544 33.8114 73.8794 33.7531 73.8794 33.6823C73.8794 33.6114 73.8544 33.5531 73.8065 33.5031C73.7565 33.4531 73.6961 33.4281 73.6253 33.4281Z" fill="#191919"/>
<path d="M64.882 11.9531C64.8404 11.9219 64.7924 11.9073 64.7424 11.9073C64.707 11.9073 64.6737 11.9156 64.6424 11.9281C64.5966 11.9469 64.5591 11.9781 64.5299 12.0198C64.5029 12.0635 64.4883 12.1094 64.4883 12.1615C64.4883 12.1948 64.4945 12.2281 64.507 12.2594C64.5341 12.324 64.5799 12.3677 64.6424 12.3948C64.6737 12.4073 64.707 12.4156 64.7424 12.4135C64.7924 12.4156 64.8404 12.401 64.882 12.3698C64.9258 12.3427 64.9549 12.3073 64.9737 12.2594C64.9883 12.2281 64.9966 12.1948 64.9945 12.1615C64.9966 12.1094 64.982 12.0635 64.9508 12.0198C64.9341 11.9927 64.9112 11.9698 64.882 11.9531Z" fill="#191919"/>
<path d="M67.2796 16.9719C67.2087 16.9719 67.1504 16.9969 67.1004 17.0448C67.0504 17.0948 67.0254 17.1552 67.0254 17.2239C67.0254 17.2948 67.0504 17.3552 67.1004 17.4031C67.1504 17.4531 67.2087 17.4781 67.2796 17.4781C67.3504 17.4781 67.4087 17.4531 67.4587 17.4031C67.5087 17.3552 67.5337 17.2948 67.5337 17.2239C67.5337 17.1552 67.5087 17.0948 67.4587 17.0448C67.4087 16.9969 67.3504 16.9719 67.2796 16.9719Z" fill="#191919"/>
<path d="M67.2796 14.4406C67.2087 14.4406 67.1504 14.4656 67.1004 14.5135C67.0504 14.5635 67.0254 14.6239 67.0254 14.6927C67.0254 14.7635 67.0504 14.8219 67.1004 14.8719C67.1504 14.9219 67.2087 14.9469 67.2796 14.9469C67.3504 14.9469 67.4087 14.9219 67.4587 14.8719C67.5087 14.8219 67.5337 14.7635 67.5337 14.6927C67.5337 14.6239 67.5087 14.5635 67.4587 14.5135C67.4087 14.4656 67.3504 14.4406 67.2796 14.4406Z" fill="#191919"/>
<path d="M66.0099 15.7052C65.9391 15.7073 65.8807 15.7323 65.8307 15.7823C65.7828 15.8323 65.7578 15.8906 65.7599 15.9615C65.7599 16.0302 65.7849 16.0906 65.8349 16.1385C65.8849 16.1885 65.9453 16.2115 66.0141 16.2115C66.0849 16.2115 66.1432 16.1865 66.1932 16.1385C66.2432 16.0885 66.2661 16.0281 66.2661 15.9594C66.2661 15.8885 66.2411 15.8281 66.1911 15.7781C66.1411 15.7281 66.0807 15.7052 66.0099 15.7052Z" fill="#191919"/>
<path d="M66.0099 13.1719C65.9391 13.174 65.8807 13.199 65.8328 13.249C65.7828 13.299 65.7578 13.3573 65.7599 13.4281C65.7599 13.4969 65.7849 13.5552 65.8349 13.6052C65.8828 13.6531 65.9432 13.6781 66.0141 13.6781C66.0828 13.6781 66.1432 13.6531 66.1911 13.6052C66.2411 13.5552 66.2661 13.4969 66.2661 13.4281C66.2682 13.3573 66.2432 13.2948 66.1911 13.2448C66.1411 13.1948 66.0807 13.1719 66.0099 13.1719Z" fill="#191919"/>
<path d="M64.882 17.0156C64.8404 16.9864 64.7924 16.9719 64.7424 16.9719C64.707 16.9719 64.6737 16.9781 64.6424 16.9927C64.5404 17.0364 64.4883 17.1135 64.4883 17.226C64.4883 17.3364 64.5404 17.4156 64.6424 17.4594C64.6737 17.4719 64.707 17.4781 64.7424 17.4781C64.7924 17.4781 64.8404 17.4635 64.882 17.4364C64.9174 17.4114 64.9445 17.3823 64.9654 17.3448C64.9841 17.3073 64.9945 17.2677 64.9945 17.226C64.9945 17.1844 64.9841 17.1448 64.9654 17.1073C64.9445 17.0698 64.9174 17.0385 64.882 17.0156Z" fill="#191919"/>
<path d="M64.882 14.4844C64.8404 14.4552 64.7924 14.4406 64.7424 14.4406C64.707 14.4406 64.6737 14.4469 64.6424 14.4614C64.5404 14.5052 64.4883 14.5823 64.4883 14.6948C64.4883 14.8052 64.5404 14.8823 64.6424 14.926C64.6737 14.9406 64.707 14.9469 64.7424 14.9469C64.7924 14.9469 64.8404 14.9323 64.882 14.9031C64.9591 14.8531 64.9966 14.7844 64.9945 14.6927C64.9966 14.6031 64.9591 14.5323 64.882 14.4844Z" fill="#191919"/>
<path d="M67.2787 22.0344C67.2371 22.0344 67.1975 22.0448 67.16 22.0656C67.1225 22.0864 67.0912 22.1135 67.0683 22.1489C67.0454 22.1844 67.0308 22.2219 67.0266 22.2656C67.0225 22.3073 67.0287 22.3469 67.0454 22.3864C67.0891 22.4885 67.1662 22.5406 67.2787 22.5406C67.3891 22.5406 67.4683 22.4885 67.5121 22.3864C67.5266 22.3552 67.5329 22.3219 67.5329 22.2885C67.5329 22.2364 67.5183 22.1906 67.4891 22.1469C67.4391 22.0739 67.3683 22.0364 67.2787 22.0344Z" fill="#191919"/>
<path d="M67.2796 19.501C67.2087 19.501 67.1504 19.526 67.1004 19.576C67.0504 19.626 67.0254 19.6844 67.0254 19.7552C67.0254 19.824 67.0504 19.8844 67.1004 19.9344C67.1504 19.9823 67.2087 20.0073 67.2796 20.0073C67.3504 20.0073 67.4087 19.9823 67.4587 19.9344C67.5087 19.8844 67.5337 19.824 67.5337 19.7552C67.5337 19.6844 67.5087 19.626 67.4587 19.576C67.4087 19.526 67.3504 19.501 67.2796 19.501Z" fill="#191919"/>
<path d="M66.01 20.7698C65.9392 20.7698 65.8788 20.7948 65.8309 20.8427C65.7809 20.8927 65.7559 20.9531 65.7559 21.0219C65.7559 21.0927 65.7809 21.151 65.8309 21.201C65.8788 21.251 65.9392 21.276 66.01 21.276C66.0809 21.276 66.1392 21.251 66.1892 21.201C66.2392 21.151 66.2642 21.0927 66.2642 21.0219C66.2642 20.9531 66.2392 20.8927 66.1892 20.8427C66.1392 20.7948 66.0788 20.7698 66.01 20.7698Z" fill="#191919"/>
<path d="M68.5471 20.7698C68.4784 20.7698 68.418 20.7948 68.368 20.8427C68.318 20.8927 68.293 20.9531 68.293 21.0219C68.293 21.0927 68.318 21.151 68.368 21.201C68.418 21.251 68.4784 21.276 68.5471 21.276C68.618 21.276 68.6784 21.251 68.7263 21.201C68.7763 21.151 68.8013 21.0927 68.8013 21.0219C68.8013 20.9531 68.7763 20.8927 68.7263 20.8427C68.6784 20.7948 68.618 20.7698 68.5471 20.7698Z" fill="#191919"/>
<path d="M66.01 18.2365C65.9392 18.2365 65.8788 18.2615 65.8309 18.3115C65.7809 18.3615 65.7559 18.4198 65.7559 18.4906C65.7559 18.5614 65.7809 18.6198 65.8309 18.6698C65.8788 18.7198 65.9392 18.7448 66.01 18.7448C66.0809 18.7448 66.1392 18.7198 66.1892 18.6698C66.2392 18.6198 66.2642 18.5614 66.2642 18.4906C66.2642 18.4198 66.2392 18.3615 66.1892 18.3115C66.1392 18.2615 66.0788 18.2365 66.01 18.2365Z" fill="#191919"/>
<path d="M68.5471 18.2365C68.4784 18.2365 68.418 18.2615 68.368 18.3115C68.318 18.3615 68.293 18.4198 68.293 18.4906C68.293 18.5614 68.318 18.6198 68.368 18.6698C68.418 18.7198 68.4784 18.7448 68.5471 18.7448C68.618 18.7448 68.6784 18.7198 68.7263 18.6698C68.7763 18.6198 68.8013 18.5614 68.8013 18.4906C68.8013 18.4198 68.7763 18.3615 68.7263 18.3115C68.6784 18.2615 68.618 18.2365 68.5471 18.2365Z" fill="#191919"/>
<path d="M64.882 22.0781C64.8404 22.0489 64.7924 22.0344 64.7424 22.0344C64.707 22.0344 64.6737 22.0427 64.6424 22.0552C64.5966 22.076 64.5591 22.1052 64.5299 22.1469C64.5029 22.1906 64.4883 22.2364 64.4883 22.2885C64.4883 22.3219 64.4945 22.3552 64.507 22.3864C64.5341 22.451 64.5799 22.4948 64.6424 22.5219C64.6737 22.5344 64.707 22.5406 64.7424 22.5406C64.7924 22.5406 64.8404 22.5281 64.882 22.4989C64.9258 22.4719 64.9549 22.4344 64.9737 22.3864C64.9883 22.3552 64.9966 22.3219 64.9945 22.2885C64.9966 22.2364 64.982 22.1906 64.9508 22.1469C64.9341 22.1198 64.9112 22.0969 64.882 22.0781Z" fill="#191919"/>
<path d="M64.882 19.5469C64.8404 19.5177 64.7924 19.5031 64.7424 19.5031C64.707 19.5031 64.6737 19.5094 64.6424 19.5239C64.5404 19.5677 64.4883 19.6448 64.4883 19.7573C64.4883 19.8698 64.5404 19.9469 64.6424 19.9906C64.6737 20.0031 64.707 20.0094 64.7424 20.0094C64.7924 20.0094 64.8404 19.9948 64.882 19.9677C64.9174 19.9448 64.9445 19.9135 64.9654 19.876C64.9841 19.8385 64.9945 19.7989 64.9945 19.7573C64.9945 19.7156 64.9841 19.676 64.9654 19.6385C64.9445 19.601 64.9174 19.5698 64.882 19.5469Z" fill="#191919"/>
<path d="M67.2796 27.0989C67.2087 27.0989 67.1504 27.1239 67.1004 27.1719C67.0504 27.2219 67.0254 27.2823 67.0254 27.351C67.0254 27.4219 67.0504 27.4802 67.1004 27.5302C67.1504 27.5802 67.2087 27.6052 67.2796 27.6052C67.3504 27.6052 67.4087 27.5802 67.4587 27.5302C67.5087 27.4802 67.5337 27.4219 67.5337 27.351C67.5337 27.2823 67.5087 27.2219 67.4587 27.1719C67.4087 27.1239 67.3504 27.0989 67.2796 27.0989Z" fill="#191919"/>
<path d="M67.2796 24.5677C67.2087 24.5677 67.1504 24.5906 67.1004 24.6406C67.0504 24.6906 67.0254 24.751 67.0254 24.8198C67.0254 24.8906 67.0504 24.9489 67.1004 24.9989C67.1504 25.0489 67.2087 25.0739 67.2796 25.0739C67.3504 25.0739 67.4087 25.0489 67.4587 24.9989C67.5087 24.9489 67.5337 24.8906 67.5337 24.8198C67.5337 24.751 67.5087 24.6906 67.4587 24.6406C67.4087 24.5906 67.3504 24.5677 67.2796 24.5677Z" fill="#191919"/>
<path d="M66.01 25.8302C65.9392 25.8302 65.8788 25.8552 65.8309 25.9052C65.7809 25.9552 65.7559 26.0135 65.7559 26.0844C65.7559 26.1531 65.7809 26.2135 65.8309 26.2635C65.8788 26.3115 65.9392 26.3365 66.01 26.3365C66.0809 26.3365 66.1392 26.3115 66.1892 26.2635C66.2392 26.2135 66.2642 26.1531 66.2642 26.0844C66.2642 26.0135 66.2392 25.9552 66.1892 25.9052C66.1392 25.8552 66.0788 25.8302 66.01 25.8302Z" fill="#191919"/>
<path d="M68.5471 25.8302C68.4784 25.8302 68.418 25.8552 68.368 25.9052C68.318 25.9552 68.293 26.0135 68.293 26.0844C68.293 26.1531 68.318 26.2135 68.368 26.2635C68.418 26.3115 68.4784 26.3365 68.5471 26.3365C68.618 26.3365 68.6784 26.3115 68.7263 26.2635C68.7763 26.2135 68.8013 26.1531 68.8013 26.0844C68.8013 26.0135 68.7763 25.9552 68.7263 25.9052C68.6784 25.8552 68.618 25.8302 68.5471 25.8302Z" fill="#191919"/>
<path d="M66.01 23.301C65.9392 23.301 65.8788 23.326 65.8309 23.376C65.7809 23.4239 65.7559 23.4844 65.7559 23.5531C65.7559 23.6239 65.7809 23.6844 65.8309 23.7323C65.8788 23.7823 65.9392 23.8073 66.01 23.8073C66.0809 23.8073 66.1392 23.7823 66.1892 23.7323C66.2392 23.6844 66.2642 23.6239 66.2642 23.5531C66.2642 23.4844 66.2392 23.4239 66.1892 23.376C66.1392 23.326 66.0788 23.301 66.01 23.301Z" fill="#191919"/>
<path d="M68.5471 23.301C68.4784 23.301 68.418 23.326 68.368 23.376C68.318 23.4239 68.293 23.4844 68.293 23.5531C68.293 23.6239 68.318 23.6844 68.368 23.7323C68.418 23.7823 68.4784 23.8073 68.5471 23.8073C68.618 23.8073 68.6784 23.7823 68.7263 23.7323C68.7763 23.6844 68.8013 23.6239 68.8013 23.5531C68.8013 23.4844 68.7763 23.4239 68.7263 23.376C68.6784 23.326 68.618 23.301 68.5471 23.301Z" fill="#191919"/>
<path d="M64.882 27.1427C64.8404 27.1135 64.7924 27.0989 64.7424 27.0989C64.707 27.0989 64.6737 27.1052 64.6424 27.1198C64.5404 27.1635 64.4883 27.2406 64.4883 27.3531C64.4883 27.4635 64.5404 27.5427 64.6424 27.5864C64.6737 27.5989 64.707 27.6052 64.7424 27.6052C64.7924 27.6052 64.8404 27.5906 64.882 27.5635C64.9174 27.5385 64.9445 27.5094 64.9654 27.4719C64.9841 27.4344 64.9945 27.3948 64.9945 27.3531C64.9945 27.3094 64.9841 27.2698 64.9654 27.2344C64.9445 27.1969 64.9174 27.1656 64.882 27.1427Z" fill="#191919"/>
<path d="M64.882 24.6114C64.8404 24.5802 64.7924 24.5656 64.7424 24.5677C64.707 24.5656 64.6737 24.574 64.6424 24.5885C64.5404 24.6323 64.4883 24.7094 64.4883 24.8198C64.4883 24.9323 64.5404 25.0094 64.6424 25.0531C64.6737 25.0677 64.707 25.0739 64.7424 25.0739C64.7924 25.0739 64.8404 25.0594 64.882 25.0302C64.9174 25.0073 64.9445 24.976 64.9654 24.9406C64.9841 24.9031 64.9945 24.8635 64.9945 24.8198C64.9945 24.7781 64.9841 24.7385 64.9654 24.701C64.9445 24.6635 64.9174 24.6344 64.882 24.6114Z" fill="#191919"/>
<path d="M67.2784 32.1594C67.1888 32.1614 67.118 32.1989 67.068 32.2719C67.018 32.3489 67.0097 32.4281 67.0451 32.5114C67.0888 32.6135 67.1659 32.6656 67.2784 32.6656C67.3888 32.6656 67.468 32.6135 67.5117 32.5114C67.5263 32.4802 67.5326 32.4469 67.5326 32.4135C67.5326 32.3614 67.518 32.3156 67.4888 32.2719C67.4388 32.1989 67.368 32.1614 67.2784 32.1594Z" fill="#191919"/>
<path d="M67.2798 29.6302C67.209 29.6302 67.1486 29.6552 67.0986 29.7031C67.0486 29.7531 67.0236 29.8135 67.0236 29.8844C67.0215 29.9552 67.0465 30.0156 67.0965 30.0656C67.1465 30.1156 67.209 30.1406 67.2777 30.1406C67.3486 30.1406 67.409 30.1156 67.459 30.0635C67.509 30.0135 67.534 29.9531 67.534 29.8844C67.534 29.8135 67.509 29.7531 67.459 29.7052C67.409 29.6552 67.3506 29.6302 67.2798 29.6302Z" fill="#191919"/>
<path d="M66.01 30.8969C65.9392 30.8969 65.8809 30.9198 65.8309 30.9698C65.7809 31.0198 65.7559 31.0781 65.7559 31.1489C65.7559 31.2177 65.7809 31.2781 65.8288 31.3281C65.8788 31.3781 65.9392 31.401 66.0079 31.4031C66.0788 31.4031 66.1392 31.3781 66.1892 31.3302C66.2371 31.2802 66.2621 31.2198 66.2642 31.151C66.2642 31.0802 66.2392 31.0198 66.1892 30.9698C66.1392 30.9219 66.0809 30.8969 66.01 30.8969Z" fill="#191919"/>
<path d="M68.5471 30.8969C68.4784 30.8969 68.418 30.9198 68.368 30.9698C68.318 31.0198 68.293 31.0781 68.293 31.1489C68.293 31.2177 68.318 31.2781 68.368 31.3281C68.4159 31.3781 68.4763 31.401 68.5471 31.4031C68.6159 31.4031 68.6763 31.3781 68.7263 31.3302C68.7763 31.2802 68.8013 31.2198 68.8013 31.151C68.8013 31.0802 68.7784 31.0198 68.7284 30.9698C68.6784 30.9219 68.618 30.8969 68.5471 30.8969Z" fill="#191919"/>
<path d="M66.01 28.3635C65.9392 28.3635 65.8788 28.3885 65.8309 28.4385C65.7809 28.4885 65.7559 28.5469 65.7559 28.6177C65.7559 28.6864 65.7809 28.7469 65.8309 28.7969C65.8788 28.8469 65.9392 28.8698 66.01 28.8698C66.0809 28.8698 66.1392 28.8469 66.1892 28.7969C66.2392 28.7469 66.2642 28.6864 66.2642 28.6177C66.2642 28.5469 66.2392 28.4885 66.1892 28.4385C66.1392 28.3885 66.0788 28.3635 66.01 28.3635Z" fill="#191919"/>
<path d="M68.5471 28.3635C68.4784 28.3635 68.418 28.3885 68.368 28.4385C68.318 28.4885 68.293 28.5469 68.293 28.6177C68.293 28.6864 68.318 28.7469 68.368 28.7969C68.418 28.8469 68.4784 28.8698 68.5471 28.8698C68.618 28.8698 68.6784 28.8469 68.7263 28.7969C68.7763 28.7469 68.8013 28.6864 68.8013 28.6177C68.8013 28.5469 68.7763 28.4885 68.7263 28.4385C68.6784 28.3885 68.618 28.3635 68.5471 28.3635Z" fill="#191919"/>
<path d="M64.8815 32.2052C64.8398 32.1781 64.7919 32.1614 64.7419 32.1614C64.6981 32.1614 64.6585 32.1719 64.621 32.1927C64.5835 32.2135 64.5544 32.2406 64.5294 32.276C64.5065 32.3114 64.494 32.3489 64.4898 32.3906C64.4856 32.4344 64.4898 32.4739 64.5065 32.5135C64.5335 32.576 64.5794 32.6219 64.6419 32.6489C64.6731 32.6614 64.7065 32.6677 64.7419 32.6677C64.7919 32.6677 64.8398 32.6552 64.8815 32.626C64.9252 32.5969 64.9544 32.5594 64.9731 32.5135C64.9877 32.4823 64.996 32.4489 64.994 32.4156C64.996 32.3635 64.9794 32.3177 64.9502 32.2739C64.9335 32.2469 64.9106 32.2239 64.8815 32.2052Z" fill="#191919"/>
<path d="M64.882 29.6739C64.8404 29.6448 64.7924 29.6302 64.7424 29.6302C64.707 29.6302 64.6737 29.6364 64.6424 29.651C64.5404 29.6948 64.4883 29.7719 64.4883 29.8844C64.4883 29.9948 64.5404 30.0739 64.6424 30.1177C64.6737 30.1302 64.707 30.1385 64.7424 30.1385C64.7924 30.1385 64.8404 30.1239 64.882 30.0948C64.9174 30.0698 64.9445 30.0406 64.9654 30.0031C64.9841 29.9656 64.9945 29.926 64.9945 29.8844C64.9945 29.8427 64.9841 29.8031 64.9654 29.7656C64.9445 29.7281 64.9174 29.6969 64.882 29.6739Z" fill="#191919"/>
<path d="M66.01 33.4281C65.9392 33.4281 65.8809 33.4531 65.8309 33.501C65.7809 33.551 65.7559 33.6114 65.7559 33.6802C65.7559 33.751 65.7809 33.8094 65.8288 33.8594C65.8788 33.9094 65.9392 33.9344 66.0079 33.9344C66.0788 33.9344 66.1392 33.9094 66.1892 33.8614C66.2371 33.8114 66.2621 33.7531 66.2642 33.6823C66.2642 33.6114 66.2392 33.5531 66.1892 33.5031C66.1392 33.4531 66.0809 33.4281 66.01 33.4281Z" fill="#191919"/>
<path d="M68.5471 33.4281C68.4784 33.4281 68.418 33.4531 68.368 33.501C68.318 33.551 68.293 33.6114 68.293 33.6802C68.293 33.751 68.318 33.8094 68.368 33.8594C68.4159 33.9094 68.4763 33.9344 68.5471 33.9344C68.6159 33.9344 68.6763 33.9094 68.7263 33.8614C68.7763 33.8114 68.8013 33.7531 68.8013 33.6823C68.8013 33.6114 68.7784 33.5531 68.7284 33.5031C68.6784 33.4531 68.618 33.4281 68.5471 33.4281Z" fill="#191919"/>
<path d="M59.806 1.82605C59.7623 1.7948 59.7165 1.78022 59.6644 1.7823C59.5748 1.78022 59.504 1.81772 59.4519 1.89272C59.4019 1.96772 59.3956 2.04897 59.429 2.1323C59.4727 2.23647 59.5519 2.28855 59.6644 2.28855C59.7165 2.28855 59.7623 2.27397 59.806 2.2448C59.8477 2.21563 59.879 2.18022 59.8977 2.1323C59.9102 2.10105 59.9185 2.0698 59.9185 2.03438C59.9185 1.9823 59.904 1.93438 59.8748 1.89272C59.856 1.86563 59.8331 1.84272 59.806 1.82605Z" fill="#191919"/>
<path d="M62.2014 6.84271C62.1327 6.84271 62.0723 6.86771 62.0223 6.91771C61.9723 6.96563 61.9473 7.02605 61.9473 7.09688C61.9473 7.16563 61.9723 7.22605 62.0223 7.27605C62.0723 7.32396 62.1327 7.34896 62.2014 7.34896C62.2723 7.34896 62.3327 7.32396 62.3806 7.27605C62.4306 7.22605 62.4556 7.16563 62.4556 7.09688C62.4556 7.02605 62.4306 6.96563 62.3806 6.91771C62.3327 6.86771 62.2723 6.84271 62.2014 6.84271Z" fill="#191919"/>
<path d="M60.9339 5.57812C60.863 5.57812 60.8047 5.60313 60.7547 5.65313C60.7047 5.70313 60.6797 5.76146 60.6797 5.83229C60.6797 5.90104 60.7047 5.96146 60.7547 6.01146C60.8047 6.06146 60.863 6.08438 60.9339 6.08438C61.0047 6.08438 61.063 6.06146 61.113 6.01146C61.163 5.96146 61.188 5.90104 61.188 5.83229C61.188 5.76146 61.163 5.70313 61.113 5.65313C61.0651 5.60313 61.0047 5.57812 60.9339 5.57812Z" fill="#191919"/>
<path d="M59.806 6.88854C59.7622 6.85937 59.7164 6.84479 59.6643 6.84479C59.5935 6.84479 59.5331 6.86979 59.4852 6.91979C59.4352 6.9677 59.4102 7.02812 59.4102 7.09895C59.4102 7.1677 59.4352 7.22812 59.4852 7.27604C59.5331 7.32604 59.5935 7.35104 59.6643 7.35104C59.7164 7.35104 59.7622 7.33645 59.806 7.30729C59.8393 7.28437 59.8685 7.25312 59.8872 7.21562C59.9081 7.1802 59.9164 7.14062 59.9164 7.09895C59.9164 7.0552 59.9081 7.01562 59.8872 6.9802C59.8685 6.9427 59.8393 6.91145 59.806 6.88854Z" fill="#191919"/>
<path d="M59.8058 4.35729C59.7621 4.32812 59.7163 4.31354 59.6642 4.31354C59.5933 4.31354 59.535 4.33854 59.485 4.38854C59.4371 4.43854 59.4121 4.49895 59.4142 4.5677C59.4142 4.63854 59.4392 4.69687 59.4892 4.74687C59.5392 4.79479 59.5996 4.81979 59.6683 4.81979C59.7392 4.81979 59.7975 4.79479 59.8475 4.74479C59.8975 4.69479 59.9204 4.63645 59.9204 4.56562C59.9204 4.47604 59.8808 4.4052 59.8058 4.35729Z" fill="#191919"/>
<path d="M62.2014 11.9073C62.1118 11.9073 62.041 11.9448 61.991 12.0198C61.9618 12.0635 61.9473 12.1094 61.9473 12.1615C61.9473 12.1948 61.9535 12.2281 61.9681 12.2594C62.0118 12.3615 62.091 12.4135 62.2014 12.4135C62.3139 12.4135 62.391 12.3615 62.4368 12.2594C62.4493 12.2281 62.4556 12.1948 62.4556 12.1615C62.4556 12.1094 62.441 12.0635 62.4118 12.0198C62.3618 11.9469 62.291 11.9094 62.2014 11.9073Z" fill="#191919"/>
<path d="M62.2014 9.37604C62.1327 9.37604 62.0723 9.40104 62.0223 9.45104C61.9723 9.50104 61.9473 9.55937 61.9473 9.6302C61.9473 9.69895 61.9723 9.75937 62.0223 9.80937C62.0723 9.85729 62.1327 9.88229 62.2014 9.88229C62.2723 9.88229 62.3327 9.85729 62.3806 9.80937C62.4306 9.75937 62.4556 9.69895 62.4556 9.6302C62.4556 9.55937 62.4306 9.50104 62.3806 9.45104C62.3327 9.40104 62.2723 9.37604 62.2014 9.37604Z" fill="#191919"/>
<path d="M60.9339 10.6427C60.863 10.6427 60.8047 10.6677 60.7547 10.7156C60.7047 10.7656 60.6797 10.826 60.6797 10.8948C60.6797 10.9656 60.7047 11.026 60.7547 11.074C60.8047 11.124 60.863 11.149 60.9339 11.149C61.0047 11.149 61.063 11.124 61.113 11.074C61.163 11.026 61.188 10.9656 61.188 10.8948C61.188 10.826 61.163 10.7656 61.113 10.7156C61.063 10.6677 61.0047 10.6427 60.9339 10.6427Z" fill="#191919"/>
<path d="M63.4708 10.6427C63.4021 10.6427 63.3417 10.6677 63.2917 10.7156C63.2438 10.7656 63.2188 10.826 63.2188 10.8948C63.2188 10.9656 63.2438 11.026 63.2917 11.074C63.3417 11.124 63.4021 11.149 63.4708 11.149C63.5417 11.149 63.6021 11.124 63.6521 11.074C63.7 11.026 63.725 10.9656 63.725 10.8948C63.725 10.826 63.7 10.7656 63.6521 10.7156C63.6021 10.6677 63.5417 10.6427 63.4708 10.6427Z" fill="#191919"/>
<path d="M60.9339 8.11145C60.863 8.11145 60.8047 8.13437 60.7547 8.18437C60.7047 8.23437 60.6797 8.29478 60.6797 8.36353C60.6797 8.43437 60.7047 8.4927 60.7547 8.5427C60.8047 8.5927 60.863 8.6177 60.9339 8.6177C61.0047 8.6177 61.063 8.5927 61.113 8.5427C61.163 8.4927 61.188 8.43437 61.188 8.36353C61.188 8.2927 61.163 8.23437 61.113 8.18437C61.0651 8.13437 61.0047 8.10937 60.9339 8.11145Z" fill="#191919"/>
<path d="M63.4708 8.11145C63.4021 8.11145 63.3417 8.13437 63.2917 8.18437C63.2438 8.23437 63.2188 8.29478 63.2188 8.36353C63.2188 8.43437 63.2438 8.4927 63.2917 8.5427C63.3417 8.5927 63.4021 8.6177 63.4708 8.6177C63.5417 8.6177 63.6021 8.5927 63.6521 8.5427C63.7 8.4927 63.725 8.43437 63.725 8.36353C63.7271 8.2927 63.7021 8.23437 63.6521 8.18437C63.6021 8.13437 63.5417 8.10937 63.4708 8.11145Z" fill="#191919"/>
<path d="M59.806 11.9531C59.7622 11.9219 59.7164 11.9073 59.6643 11.9073C59.5727 11.9073 59.5018 11.9448 59.4518 12.0198C59.4247 12.0635 59.4102 12.1094 59.4102 12.1615C59.4102 12.1948 59.4164 12.2281 59.4289 12.2594C59.4727 12.3635 59.5518 12.4156 59.6643 12.4135C59.7164 12.4156 59.7622 12.401 59.806 12.3698C59.8477 12.3427 59.8789 12.3073 59.8977 12.2594C59.9102 12.2281 59.9185 12.1948 59.9185 12.1615C59.9185 12.1094 59.9039 12.0635 59.8747 12.0198C59.856 11.9927 59.8331 11.9698 59.806 11.9531Z" fill="#191919"/>
<path d="M59.8058 9.41979C59.7621 9.39062 59.7163 9.37604 59.6642 9.37604C59.5933 9.37812 59.535 9.40312 59.485 9.45312C59.4371 9.50312 59.4121 9.56145 59.4142 9.63229C59.4142 9.70104 59.4392 9.76145 59.4892 9.80937C59.5392 9.85937 59.5996 9.88229 59.6683 9.88229C59.7392 9.88229 59.7975 9.85729 59.8475 9.80729C59.8975 9.75937 59.9204 9.69895 59.9204 9.6302C59.9204 9.53854 59.8808 9.46979 59.8058 9.41979Z" fill="#191919"/>
<path d="M62.2014 16.9719C62.1327 16.9719 62.0723 16.9969 62.0223 17.0448C61.9723 17.0948 61.9473 17.1552 61.9473 17.2239C61.9473 17.2948 61.9723 17.3552 62.0223 17.4031C62.0723 17.4531 62.1327 17.4781 62.2014 17.4781C62.2723 17.4781 62.3327 17.4531 62.3806 17.4031C62.4306 17.3552 62.4556 17.2948 62.4556 17.2239C62.4556 17.1552 62.4306 17.0948 62.3806 17.0448C62.3327 16.9969 62.2723 16.9719 62.2014 16.9719Z" fill="#191919"/>
<path d="M62.2014 14.4406C62.1327 14.4406 62.0723 14.4656 62.0223 14.5135C61.9723 14.5635 61.9473 14.6239 61.9473 14.6927C61.9473 14.7635 61.9723 14.8219 62.0223 14.8719C62.0723 14.9219 62.1327 14.9469 62.2014 14.9469C62.2723 14.9469 62.3327 14.9219 62.3806 14.8719C62.4306 14.8219 62.4556 14.7635 62.4556 14.6927C62.4556 14.6239 62.4306 14.5635 62.3806 14.5135C62.3327 14.4656 62.2723 14.4406 62.2014 14.4406Z" fill="#191919"/>
<path d="M60.9339 15.7052C60.863 15.7052 60.8047 15.7302 60.7547 15.7802C60.7047 15.8302 60.6797 15.8885 60.6797 15.9594C60.6797 16.0281 60.7047 16.0885 60.7547 16.1385C60.8047 16.1865 60.863 16.2115 60.9339 16.2115C61.0047 16.2115 61.063 16.1865 61.113 16.1385C61.163 16.0885 61.188 16.0281 61.188 15.9594C61.188 15.8885 61.163 15.8302 61.113 15.7802C61.063 15.7302 61.0047 15.7052 60.9339 15.7052Z" fill="#191919"/>
<path d="M63.4708 15.7052C63.4021 15.7052 63.3417 15.7302 63.2917 15.7802C63.2438 15.8302 63.2188 15.8885 63.2188 15.9594C63.2188 16.0281 63.2438 16.0885 63.2917 16.1385C63.3417 16.1865 63.4021 16.2115 63.4708 16.2115C63.5417 16.2115 63.6021 16.1865 63.6521 16.1385C63.7 16.0885 63.725 16.0281 63.725 15.9594C63.725 15.8885 63.7 15.8302 63.6521 15.7802C63.6021 15.7302 63.5417 15.7052 63.4708 15.7052Z" fill="#191919"/>
<path d="M60.9339 13.1719C60.863 13.1719 60.8047 13.1969 60.7547 13.2469C60.7047 13.2969 60.6797 13.3552 60.6797 13.426C60.6797 13.4948 60.7047 13.5552 60.7547 13.6052C60.8047 13.6531 60.863 13.6781 60.9339 13.6781C61.0047 13.6781 61.063 13.6531 61.113 13.6052C61.163 13.5552 61.188 13.4948 61.188 13.426C61.188 13.3552 61.163 13.2969 61.113 13.2469C61.063 13.1969 61.0047 13.1719 60.9339 13.1719Z" fill="#191919"/>
<path d="M63.4708 13.1719C63.4021 13.1719 63.3417 13.1969 63.2917 13.2469C63.2438 13.2969 63.2188 13.3552 63.2188 13.426C63.2188 13.4948 63.2438 13.5552 63.2917 13.6052C63.3417 13.6531 63.4021 13.6781 63.4708 13.6781C63.5417 13.6781 63.6021 13.6531 63.6521 13.6052C63.7 13.5552 63.725 13.4948 63.725 13.426C63.725 13.3552 63.7 13.2969 63.6521 13.2469C63.6021 13.1969 63.5417 13.1719 63.4708 13.1719Z" fill="#191919"/>
<path d="M59.8072 17.0156C59.7634 16.9864 59.7176 16.9719 59.6655 16.9719C59.6238 16.9719 59.5843 16.9802 59.5468 16.9989C59.5093 17.0177 59.4801 17.0427 59.4551 17.076C59.4301 17.1094 59.4155 17.1469 59.4072 17.1885C59.4009 17.2281 59.4051 17.2698 59.4176 17.3094C59.4301 17.3469 59.4509 17.3823 59.4822 17.4114C59.5113 17.4406 59.5468 17.4614 59.5863 17.4739C59.6259 17.4864 59.6655 17.4885 59.7072 17.4802C59.7468 17.4739 59.7843 17.4573 59.8176 17.4323C59.8509 17.4073 59.8759 17.376 59.8947 17.3406C59.9113 17.3031 59.9197 17.2635 59.9197 17.2219C59.9176 17.1802 59.9072 17.1406 59.8884 17.1052C59.8676 17.0677 59.8405 17.0385 59.8072 17.0156Z" fill="#191919"/>
<path d="M59.8058 14.4844C59.7621 14.4552 59.7163 14.4406 59.6642 14.4406C59.5933 14.4406 59.535 14.4656 59.485 14.5156C59.4371 14.5656 59.4121 14.626 59.4142 14.6948C59.4142 14.7656 59.4392 14.8239 59.4892 14.8739C59.5392 14.9219 59.5996 14.9469 59.6683 14.9469C59.7392 14.9469 59.7975 14.9219 59.8475 14.8719C59.8975 14.8219 59.9204 14.7635 59.9204 14.6927C59.9204 14.6031 59.8808 14.5323 59.8058 14.4844Z" fill="#191919"/>
<path d="M62.2026 22.0344C62.1609 22.0344 62.1213 22.0448 62.0838 22.0656C62.0463 22.0864 62.0151 22.1135 61.9921 22.1489C61.9692 22.1844 61.9546 22.2219 61.9505 22.2656C61.9463 22.3073 61.9526 22.3469 61.9692 22.3864C62.013 22.4885 62.0921 22.5406 62.2026 22.5406C62.3151 22.5406 62.3921 22.4885 62.438 22.3864C62.4505 22.3552 62.4567 22.3219 62.4567 22.2885C62.4567 22.2364 62.4421 22.1906 62.413 22.1469C62.363 22.0739 62.2921 22.0364 62.2026 22.0344Z" fill="#191919"/>
<path d="M62.2014 19.501C62.1327 19.501 62.0723 19.526 62.0223 19.576C61.9723 19.626 61.9473 19.6844 61.9473 19.7552C61.9473 19.824 61.9723 19.8844 62.0223 19.9344C62.0723 19.9823 62.1327 20.0073 62.2014 20.0073C62.2723 20.0073 62.3327 19.9823 62.3806 19.9344C62.4306 19.8844 62.4556 19.824 62.4556 19.7552C62.4556 19.6844 62.4306 19.626 62.3806 19.576C62.3327 19.526 62.2723 19.501 62.2014 19.501Z" fill="#191919"/>
<path d="M60.9339 20.7698C60.863 20.7698 60.8047 20.7948 60.7547 20.8427C60.7047 20.8927 60.6797 20.9531 60.6797 21.0219C60.6797 21.0927 60.7047 21.151 60.7547 21.201C60.8047 21.251 60.863 21.276 60.9339 21.276C61.0047 21.276 61.063 21.251 61.113 21.201C61.163 21.151 61.188 21.0927 61.188 21.0219C61.188 20.9531 61.163 20.8927 61.113 20.8427C61.063 20.7948 61.0047 20.7698 60.9339 20.7698Z" fill="#191919"/>
<path d="M63.4708 20.7698C63.4021 20.7698 63.3417 20.7948 63.2917 20.8427C63.2438 20.8927 63.2188 20.9531 63.2188 21.0219C63.2188 21.0927 63.2438 21.151 63.2917 21.201C63.3417 21.251 63.4021 21.276 63.4708 21.276C63.5417 21.276 63.6021 21.251 63.6521 21.201C63.7 21.151 63.725 21.0927 63.725 21.0219C63.725 20.9531 63.7 20.8927 63.6521 20.8427C63.6021 20.7948 63.5417 20.7698 63.4708 20.7698Z" fill="#191919"/>
<path d="M60.9339 18.2365C60.863 18.2365 60.8047 18.2615 60.7547 18.3115C60.7047 18.3615 60.6797 18.4198 60.6797 18.4906C60.6797 18.5614 60.7047 18.6198 60.7547 18.6698C60.8047 18.7198 60.863 18.7448 60.9339 18.7448C61.0047 18.7448 61.063 18.7198 61.113 18.6698C61.163 18.6198 61.188 18.5614 61.188 18.4906C61.188 18.4198 61.163 18.3615 61.113 18.3115C61.063 18.2615 61.0047 18.2365 60.9339 18.2365Z" fill="#191919"/>
<path d="M63.4708 18.2365C63.4021 18.2365 63.3417 18.2615 63.2917 18.3115C63.2438 18.3615 63.2188 18.4198 63.2188 18.4906C63.2188 18.5614 63.2438 18.6198 63.2917 18.6698C63.3417 18.7198 63.4021 18.7448 63.4708 18.7448C63.5417 18.7448 63.6021 18.7198 63.6521 18.6698C63.7 18.6198 63.725 18.5614 63.725 18.4906C63.725 18.4198 63.7 18.3615 63.6521 18.3115C63.6021 18.2615 63.5417 18.2365 63.4708 18.2365Z" fill="#191919"/>
<path d="M59.8071 22.0781C59.7634 22.0489 59.7175 22.0344 59.6655 22.0344C59.6217 22.0344 59.5821 22.0448 59.5446 22.0656C59.5092 22.0864 59.478 22.1135 59.455 22.1489C59.43 22.1844 59.4175 22.2219 59.4134 22.2656C59.4092 22.3073 59.4155 22.3469 59.43 22.3864C59.4613 22.4594 59.5155 22.5073 59.5925 22.5302C59.6675 22.5531 59.7405 22.5427 59.8071 22.4989C59.8488 22.4719 59.878 22.4344 59.8988 22.3864C59.9113 22.3552 59.9196 22.3219 59.9196 22.2885C59.9196 22.2364 59.905 22.1906 59.8759 22.1469C59.8571 22.1198 59.8342 22.0969 59.8071 22.0781Z" fill="#191919"/>
<path d="M59.8072 19.5469C59.7634 19.5177 59.7176 19.5031 59.6655 19.5031C59.6238 19.5031 59.5843 19.5114 59.5468 19.5302C59.5093 19.5489 59.4801 19.5739 59.4551 19.6073C59.4301 19.6427 59.4155 19.6781 59.4072 19.7198C59.4009 19.7614 59.4051 19.801 59.4176 19.8406C59.4301 19.8802 59.4509 19.9135 59.4822 19.9427C59.5113 19.9719 59.5468 19.9927 59.5863 20.0052C59.6259 20.0177 59.6655 20.0198 59.7072 20.0135C59.7468 20.0052 59.7843 19.9906 59.8176 19.9656C59.8509 19.9406 59.8759 19.9094 59.8947 19.8719C59.9113 19.8344 59.9197 19.7948 59.9197 19.7531C59.9176 19.7114 59.9072 19.6719 59.8884 19.6364C59.8676 19.601 59.8405 19.5698 59.8072 19.5469Z" fill="#191919"/>
<path d="M62.2014 27.0989C62.1327 27.0989 62.0723 27.1239 62.0223 27.1719C61.9723 27.2219 61.9473 27.2823 61.9473 27.351C61.9473 27.4219 61.9723 27.4802 62.0223 27.5302C62.0723 27.5802 62.1327 27.6052 62.2014 27.6052C62.2723 27.6052 62.3327 27.5802 62.3806 27.5302C62.4306 27.4802 62.4556 27.4219 62.4556 27.351C62.4556 27.2823 62.4306 27.2219 62.3806 27.1719C62.3327 27.1239 62.2723 27.0989 62.2014 27.0989Z" fill="#191919"/>
<path d="M62.2014 24.5677C62.1327 24.5677 62.0723 24.5906 62.0223 24.6406C61.9723 24.6906 61.9473 24.751 61.9473 24.8198C61.9473 24.8906 61.9723 24.9489 62.0223 24.9989C62.0723 25.0489 62.1327 25.0739 62.2014 25.0739C62.2723 25.0739 62.3327 25.0489 62.3806 24.9989C62.4306 24.9489 62.4556 24.8906 62.4556 24.8198C62.4556 24.751 62.4306 24.6906 62.3806 24.6406C62.3327 24.5906 62.2723 24.5677 62.2014 24.5677Z" fill="#191919"/>
<path d="M60.9339 25.8302C60.863 25.8302 60.8047 25.8552 60.7547 25.9052C60.7047 25.9552 60.6797 26.0135 60.6797 26.0844C60.6797 26.1531 60.7047 26.2135 60.7547 26.2635C60.8047 26.3115 60.863 26.3365 60.9339 26.3365C61.0047 26.3365 61.063 26.3115 61.113 26.2635C61.163 26.2135 61.188 26.1531 61.188 26.0844C61.188 26.0135 61.163 25.9552 61.113 25.9052C61.063 25.8552 61.0047 25.8302 60.9339 25.8302Z" fill="#191919"/>
<path d="M63.4708 25.8302C63.4021 25.8302 63.3417 25.8552 63.2917 25.9052C63.2438 25.9552 63.2188 26.0135 63.2188 26.0844C63.2188 26.1531 63.2438 26.2135 63.2917 26.2635C63.3417 26.3115 63.4021 26.3365 63.4708 26.3365C63.5417 26.3365 63.6021 26.3115 63.6521 26.2635C63.7 26.2135 63.725 26.1531 63.725 26.0844C63.725 26.0135 63.7 25.9552 63.6521 25.9052C63.6021 25.8552 63.5417 25.8302 63.4708 25.8302Z" fill="#191919"/>
<path d="M60.9339 23.301C60.863 23.301 60.8047 23.326 60.7547 23.376C60.7047 23.4239 60.6797 23.4844 60.6797 23.5531C60.6797 23.6239 60.7047 23.6844 60.7547 23.7323C60.8047 23.7823 60.863 23.8073 60.9339 23.8073C61.0047 23.8073 61.063 23.7823 61.113 23.7323C61.163 23.6844 61.188 23.6239 61.188 23.5531C61.188 23.4844 61.163 23.4239 61.113 23.376C61.063 23.326 61.0047 23.301 60.9339 23.301Z" fill="#191919"/>
<path d="M63.4708 23.301C63.4021 23.301 63.3417 23.326 63.2917 23.376C63.2438 23.4239 63.2188 23.4844 63.2188 23.5531C63.2188 23.6239 63.2438 23.6844 63.2917 23.7323C63.3417 23.7823 63.4021 23.8073 63.4708 23.8073C63.5417 23.8073 63.6021 23.7823 63.6521 23.7323C63.7 23.6844 63.725 23.6239 63.725 23.5531C63.725 23.4844 63.7 23.4239 63.6521 23.376C63.6021 23.326 63.5417 23.301 63.4708 23.301Z" fill="#191919"/>
<path d="M59.8072 27.1427C59.7634 27.1135 59.7176 27.0989 59.6655 27.0989C59.6238 27.0989 59.5843 27.1073 59.5468 27.126C59.5093 27.1448 59.4801 27.1698 59.4551 27.2031C59.4301 27.2364 59.4155 27.2739 59.4072 27.3156C59.4009 27.3552 59.4051 27.3969 59.4176 27.4344C59.4301 27.4739 59.4509 27.5094 59.4822 27.5385C59.5113 27.5677 59.5468 27.5885 59.5863 27.601C59.6259 27.6114 59.6655 27.6156 59.7072 27.6073C59.7468 27.601 59.7843 27.5844 59.8176 27.5594C59.8509 27.5344 59.8759 27.5031 59.8947 27.4656C59.9113 27.4281 59.9197 27.3906 59.9197 27.3489C59.9176 27.3073 59.9072 27.2677 59.8884 27.2323C59.8676 27.1948 59.8405 27.1656 59.8072 27.1427Z" fill="#191919"/>
<path d="M59.8072 24.6115C59.7634 24.5802 59.7176 24.5656 59.6655 24.5677C59.6238 24.5656 59.5843 24.576 59.5468 24.5948C59.5093 24.6115 59.4801 24.6385 59.4551 24.6719C59.4301 24.7052 59.4155 24.7427 59.4072 24.7823C59.4009 24.824 59.4051 24.8635 59.4176 24.9031C59.4301 24.9427 59.4509 24.9781 59.4822 25.0073C59.5113 25.0344 59.5468 25.0552 59.5863 25.0677C59.6259 25.0802 59.6655 25.0844 59.7072 25.076C59.7468 25.0698 59.7843 25.0531 59.8176 25.0281C59.8509 25.0031 59.8759 24.9719 59.8947 24.9344C59.9113 24.8969 59.9197 24.8573 59.9197 24.8156C59.9176 24.776 59.9072 24.7365 59.8884 24.699C59.8676 24.6635 59.8405 24.6344 59.8072 24.6115Z" fill="#191919"/>
<path d="M62.2022 32.1594C62.1127 32.1614 62.0418 32.1989 61.9918 32.2719C61.9418 32.3489 61.9335 32.4281 61.9689 32.5114C62.0127 32.6135 62.0918 32.6656 62.2022 32.6656C62.3147 32.6656 62.3918 32.6135 62.4377 32.5114C62.4502 32.4802 62.4564 32.4469 62.4564 32.4135C62.4564 32.3614 62.4418 32.3156 62.4127 32.2719C62.3627 32.1989 62.2918 32.1614 62.2022 32.1594Z" fill="#191919"/>
<path d="M62.2016 29.6302C62.1307 29.6302 62.0703 29.6552 62.0203 29.7031C61.9703 29.7531 61.9453 29.8135 61.9453 29.8844C61.9453 29.9552 61.9703 30.0156 62.0203 30.0656C62.0703 30.1156 62.1307 30.1406 62.2016 30.1406C62.2724 30.1406 62.3328 30.1156 62.3828 30.0635C62.4307 30.0135 62.4557 29.9531 62.4557 29.8844C62.4557 29.8135 62.4307 29.7531 62.3807 29.7052C62.3328 29.6552 62.2724 29.6302 62.2016 29.6302Z" fill="#191919"/>
<path d="M60.9339 30.8969C60.863 30.8969 60.8047 30.9198 60.7547 30.9698C60.7047 31.0198 60.6797 31.0781 60.6797 31.1489C60.6797 31.2177 60.7047 31.2781 60.7547 31.3281C60.8026 31.3781 60.863 31.401 60.9318 31.4031C61.0026 31.4031 61.063 31.3781 61.113 31.3302C61.163 31.2802 61.188 31.2198 61.188 31.151C61.188 31.0802 61.163 31.0198 61.1151 30.9698C61.0651 30.9219 61.0047 30.8969 60.9339 30.8969Z" fill="#191919"/>
<path d="M63.4708 30.8969C63.4021 30.8969 63.3417 30.9198 63.2917 30.9698C63.2438 31.0198 63.2188 31.0781 63.2188 31.1489C63.2188 31.2177 63.2417 31.2781 63.2917 31.3281C63.3417 31.3781 63.4 31.401 63.4708 31.4031C63.5396 31.4031 63.6 31.3781 63.65 31.3302C63.7 31.2802 63.725 31.2198 63.725 31.151C63.7271 31.0802 63.7021 31.0198 63.6521 30.9698C63.6021 30.9219 63.5417 30.8969 63.4708 30.8969Z" fill="#191919"/>
<path d="M60.9339 28.3635C60.863 28.3635 60.8047 28.3885 60.7547 28.4385C60.7047 28.4885 60.6797 28.5469 60.6797 28.6177C60.6797 28.6864 60.7047 28.7469 60.7547 28.7969C60.8047 28.8469 60.863 28.8698 60.9339 28.8698C61.0047 28.8698 61.063 28.8469 61.113 28.7969C61.163 28.7469 61.188 28.6864 61.188 28.6177C61.188 28.5469 61.163 28.4885 61.113 28.4385C61.063 28.3885 61.0047 28.3635 60.9339 28.3635Z" fill="#191919"/>
<path d="M63.4708 28.3635C63.4021 28.3635 63.3417 28.3885 63.2917 28.4385C63.2438 28.4885 63.2188 28.5469 63.2188 28.6177C63.2188 28.6864 63.2438 28.7469 63.2917 28.7969C63.3417 28.8469 63.4021 28.8698 63.4708 28.8698C63.5417 28.8698 63.6021 28.8469 63.6521 28.7969C63.7 28.7469 63.725 28.6864 63.725 28.6177C63.725 28.5469 63.7 28.4885 63.6521 28.4385C63.6021 28.3885 63.5417 28.3635 63.4708 28.3635Z" fill="#191919"/>
<path d="M59.806 32.2052C59.7477 32.1656 59.6831 32.1531 59.6144 32.1656C59.5456 32.1802 59.4915 32.2156 59.4519 32.2739C59.4019 32.351 59.3956 32.4302 59.429 32.5135C59.4602 32.5864 59.5144 32.6344 59.5915 32.6573C59.6665 32.6802 59.7394 32.6698 59.806 32.626C59.8477 32.5969 59.8769 32.5594 59.8977 32.5135C59.9102 32.4823 59.9185 32.4489 59.9185 32.4156C59.9185 32.3635 59.904 32.3177 59.8748 32.2739C59.856 32.2469 59.8331 32.2239 59.806 32.2052Z" fill="#191919"/>
<path d="M59.8068 29.6739C59.763 29.6448 59.7172 29.6302 59.6651 29.6302C59.5984 29.6364 59.5422 29.6635 59.4984 29.7114C59.4526 29.7594 59.4297 29.8177 59.4297 29.8844C59.4297 29.951 59.4526 30.0073 59.4984 30.0573C59.5422 30.1052 59.5984 30.1323 59.6651 30.1385C59.7172 30.1385 59.763 30.1239 59.8068 30.0948C59.8401 30.0698 59.8693 30.0406 59.888 30.0031C59.9089 29.9656 59.9172 29.926 59.9172 29.8844C59.9172 29.8427 59.9089 29.8031 59.888 29.7656C59.8693 29.7281 59.8401 29.6969 59.8068 29.6739Z" fill="#191919"/>
<path d="M60.9339 33.4281C60.863 33.4281 60.8047 33.4531 60.7547 33.501C60.7047 33.551 60.6797 33.6114 60.6797 33.6802C60.6797 33.751 60.7047 33.8094 60.7547 33.8594C60.8026 33.9094 60.863 33.9344 60.9318 33.9344C61.0026 33.9344 61.063 33.9094 61.113 33.8614C61.163 33.8114 61.188 33.7531 61.188 33.6823C61.188 33.6114 61.163 33.5531 61.1151 33.5031C61.0651 33.4531 61.0047 33.4281 60.9339 33.4281Z" fill="#191919"/>
<path d="M63.4708 33.4281C63.4021 33.4281 63.3417 33.4531 63.2917 33.501C63.2438 33.551 63.2188 33.6114 63.2188 33.6802C63.2188 33.751 63.2417 33.8094 63.2917 33.8594C63.3417 33.9094 63.4 33.9344 63.4708 33.9344C63.5396 33.9344 63.6 33.9094 63.65 33.8614C63.7 33.8114 63.725 33.7531 63.725 33.6823C63.7271 33.6114 63.7021 33.5531 63.6521 33.5031C63.6021 33.4531 63.5417 33.4281 63.4708 33.4281Z" fill="#191919"/>
<path d="M57.1251 6.84271C57.0564 6.84271 56.996 6.86771 56.946 6.91771C56.898 6.96563 56.873 7.02605 56.873 7.09688C56.873 7.16563 56.898 7.22605 56.946 7.27605C56.996 7.32396 57.0564 7.34896 57.1251 7.34896C57.196 7.34896 57.2564 7.32396 57.3064 7.27605C57.3543 7.22605 57.3793 7.16563 57.3793 7.09688C57.3793 7.02605 57.3543 6.96563 57.3064 6.91771C57.2564 6.86771 57.196 6.84271 57.1251 6.84271Z" fill="#191919"/>
<path d="M58.3967 5.57812C58.3259 5.57812 58.2655 5.60313 58.2155 5.65313C58.1676 5.70313 58.1426 5.76146 58.1426 5.83229C58.1426 5.90104 58.1676 5.96146 58.2155 6.01146C58.2655 6.06146 58.3259 6.08438 58.3967 6.08438C58.4655 6.08438 58.5259 6.06146 58.5759 6.01146C58.6259 5.96146 58.6488 5.90104 58.6488 5.83229C58.6509 5.76146 58.6259 5.70313 58.5759 5.65313C58.5259 5.60313 58.4655 5.57812 58.3967 5.57812Z" fill="#191919"/>
<path d="M57.1251 11.9073C57.0355 11.9073 56.9647 11.9448 56.9147 12.0198C56.8855 12.0635 56.873 12.1094 56.873 12.1615C56.873 12.1948 56.8793 12.2281 56.8918 12.2594C56.9355 12.3615 57.0147 12.4135 57.1251 12.4135C57.2376 12.4135 57.3168 12.3615 57.3605 12.2594C57.373 12.2281 57.3793 12.1948 57.3793 12.1615C57.3793 12.1094 57.3647 12.0635 57.3355 12.0198C57.2855 11.9469 57.2168 11.9094 57.1251 11.9073Z" fill="#191919"/>
<path d="M57.1251 9.37604C57.0564 9.37604 56.996 9.40104 56.946 9.45104C56.898 9.50104 56.873 9.55937 56.873 9.6302C56.873 9.69895 56.898 9.75937 56.946 9.80937C56.996 9.85729 57.0564 9.88229 57.1251 9.88229C57.196 9.88229 57.2564 9.85729 57.3064 9.80937C57.3543 9.75937 57.3793 9.69895 57.3793 9.6302C57.3793 9.55937 57.3543 9.50104 57.3064 9.45104C57.2564 9.40104 57.196 9.37604 57.1251 9.37604Z" fill="#191919"/>
<path d="M55.8557 10.6427C55.787 10.6427 55.7266 10.6677 55.6766 10.7156C55.6266 10.7656 55.6016 10.826 55.6016 10.8948C55.6016 10.9656 55.6266 11.026 55.6766 11.074C55.7266 11.124 55.787 11.149 55.8557 11.149C55.9266 11.149 55.987 11.124 56.0349 11.074C56.0849 11.026 56.1099 10.9656 56.1099 10.8948C56.1099 10.826 56.0849 10.7656 56.0349 10.7156C55.987 10.6677 55.9266 10.6427 55.8557 10.6427Z" fill="#191919"/>
<path d="M58.3967 10.6427C58.3259 10.6427 58.2655 10.6677 58.2155 10.7156C58.1676 10.7656 58.1426 10.826 58.1426 10.8948C58.1426 10.9656 58.1676 11.026 58.2155 11.074C58.2655 11.124 58.3259 11.149 58.3967 11.149C58.4655 11.149 58.5259 11.124 58.5759 11.074C58.6259 11.026 58.6488 10.9656 58.6488 10.8948C58.6488 10.826 58.6259 10.7656 58.5759 10.7156C58.5259 10.6677 58.4655 10.6427 58.3967 10.6427Z" fill="#191919"/>
<path d="M58.3967 8.11145C58.3259 8.11145 58.2655 8.13437 58.2155 8.18437C58.1676 8.23437 58.1426 8.29478 58.1426 8.36353C58.1426 8.43437 58.1676 8.4927 58.2155 8.5427C58.2655 8.5927 58.3259 8.6177 58.3967 8.6177C58.4655 8.6177 58.5259 8.5927 58.5759 8.5427C58.6259 8.4927 58.6488 8.43437 58.6488 8.36353C58.6509 8.2927 58.6259 8.23437 58.5759 8.18437C58.5259 8.13437 58.4655 8.10937 58.3967 8.11145Z" fill="#191919"/>
<path d="M54.6342 11.9135C54.6176 11.9115 54.6009 11.9115 54.5842 11.9135C54.5488 11.9135 54.5155 11.9198 54.4842 11.9323C54.4384 11.9531 54.4009 11.9844 54.3717 12.026C54.3426 12.0677 54.3301 12.1156 54.3301 12.1656C54.3301 12.2011 54.3363 12.2344 54.3488 12.2656C54.3759 12.3281 54.4217 12.374 54.4842 12.401C54.5155 12.4135 54.5488 12.4198 54.5842 12.4198C54.6009 12.4219 54.6176 12.4219 54.6342 12.4198C54.7197 12.401 54.778 12.351 54.8113 12.2698C54.8259 12.2385 54.8322 12.2073 54.8322 12.1719C54.8322 12.1198 54.8176 12.074 54.7884 12.0323C54.753 11.9698 54.7009 11.9323 54.6342 11.9135Z" fill="#191919"/>
<path d="M57.1251 16.9719C57.0564 16.9719 56.996 16.9969 56.946 17.0448C56.898 17.0948 56.873 17.1552 56.873 17.2239C56.873 17.2948 56.898 17.3552 56.946 17.4031C56.996 17.4531 57.0564 17.4781 57.1251 17.4781C57.196 17.4781 57.2564 17.4531 57.3064 17.4031C57.3543 17.3552 57.3793 17.2948 57.3793 17.2239C57.3793 17.1552 57.3543 17.0948 57.3064 17.0448C57.2564 16.9969 57.196 16.9719 57.1251 16.9719Z" fill="#191919"/>
<path d="M57.1251 14.4406C57.0564 14.4406 56.996 14.4656 56.946 14.5135C56.898 14.5635 56.873 14.6239 56.873 14.6927C56.873 14.7635 56.898 14.8219 56.946 14.8719C56.996 14.9219 57.0564 14.9469 57.1251 14.9469C57.196 14.9469 57.2564 14.9219 57.3064 14.8719C57.3543 14.8219 57.3793 14.7635 57.3793 14.6927C57.3793 14.6239 57.3543 14.5635 57.3064 14.5135C57.2564 14.4656 57.196 14.4406 57.1251 14.4406Z" fill="#191919"/>
<path d="M55.8557 15.7052C55.787 15.7052 55.7266 15.7302 55.6766 15.7802C55.6266 15.8302 55.6016 15.8885 55.6016 15.9594C55.6016 16.0281 55.6266 16.0885 55.6766 16.1385C55.7266 16.1865 55.787 16.2115 55.8557 16.2115C55.9266 16.2115 55.987 16.1865 56.0349 16.1385C56.0849 16.0885 56.1099 16.0281 56.1099 15.9594C56.1099 15.8885 56.0849 15.8302 56.0349 15.7802C55.987 15.7302 55.9266 15.7052 55.8557 15.7052Z" fill="#191919"/>
<path d="M58.3967 15.7052C58.3259 15.7052 58.2655 15.7302 58.2155 15.7802C58.1676 15.8302 58.1426 15.8885 58.1426 15.9594C58.1426 16.0281 58.1676 16.0885 58.2155 16.1385C58.2655 16.1865 58.3259 16.2115 58.3967 16.2115C58.4655 16.2115 58.5259 16.1865 58.5759 16.1385C58.6259 16.0885 58.6488 16.0281 58.6488 15.9594C58.6488 15.8885 58.6259 15.8302 58.5759 15.7802C58.5259 15.7302 58.4655 15.7052 58.3967 15.7052Z" fill="#191919"/>
<path d="M55.8557 13.1719C55.787 13.1719 55.7266 13.1969 55.6766 13.2469C55.6266 13.2969 55.6016 13.3552 55.6016 13.426C55.6016 13.4948 55.6266 13.5552 55.6766 13.6052C55.7266 13.6531 55.787 13.6781 55.8557 13.6781C55.9266 13.6781 55.987 13.6531 56.0349 13.6052C56.0849 13.5552 56.1099 13.4948 56.1099 13.426C56.1099 13.3552 56.0849 13.2969 56.0349 13.2469C55.987 13.1969 55.9266 13.1719 55.8557 13.1719Z" fill="#191919"/>
<path d="M58.3967 13.1719C58.3259 13.1719 58.2655 13.1969 58.2155 13.2469C58.1676 13.2969 58.1426 13.3552 58.1426 13.426C58.1426 13.4948 58.1676 13.5552 58.2155 13.6052C58.2655 13.6531 58.3259 13.6781 58.3967 13.6781C58.4655 13.6781 58.5259 13.6531 58.5759 13.6052C58.6259 13.5552 58.6488 13.4948 58.6488 13.426C58.6488 13.3552 58.6259 13.2969 58.5759 13.2469C58.5259 13.1969 58.4655 13.1719 58.3967 13.1719Z" fill="#191919"/>
<path d="M54.6342 16.9761C54.6176 16.9761 54.6009 16.9761 54.5842 16.9761C54.5488 16.9761 54.5155 16.9844 54.4842 16.999C54.3822 17.0427 54.3301 17.1198 54.3301 17.2302C54.3301 17.3427 54.3822 17.4198 54.4842 17.4636C54.5155 17.4761 54.5488 17.4823 54.5842 17.4823C54.6009 17.4844 54.6176 17.4844 54.6342 17.4823C54.6926 17.4719 54.7426 17.4427 54.7801 17.3948C54.8176 17.349 54.8363 17.2948 54.8363 17.2344C54.8384 17.174 54.8197 17.1177 54.7822 17.0698C54.7447 17.0219 54.6947 16.9907 54.6342 16.9761Z" fill="#191919"/>
<path d="M54.6342 14.4448C54.6176 14.4427 54.6009 14.4427 54.5842 14.4448C54.5488 14.4448 54.5155 14.4511 54.4842 14.4656C54.3822 14.5094 54.3301 14.5885 54.3301 14.699C54.3301 14.8115 54.3822 14.8885 54.4842 14.9323C54.5155 14.9448 54.5488 14.951 54.5842 14.951C54.6009 14.9531 54.6176 14.9531 54.6342 14.951C54.6926 14.9385 54.7426 14.9094 54.7801 14.8635C54.8176 14.8177 54.8363 14.7635 54.8363 14.7031C54.8384 14.6427 54.8197 14.5865 54.7822 14.5385C54.7447 14.4885 54.6947 14.4573 54.6342 14.4448Z" fill="#191919"/>
<path d="M57.1244 22.0344C57.0828 22.0344 57.0432 22.0448 57.0057 22.0656C56.9682 22.0864 56.939 22.1135 56.914 22.1489C56.8911 22.1844 56.8765 22.2219 56.8723 22.2656C56.8682 22.3073 56.8744 22.3469 56.8911 22.3864C56.9348 22.4885 57.014 22.5406 57.1244 22.5406C57.2369 22.5406 57.3161 22.4885 57.3598 22.3864C57.3723 22.3552 57.3786 22.3219 57.3786 22.2885C57.3786 22.2364 57.364 22.1906 57.3348 22.1469C57.2848 22.0739 57.2161 22.0364 57.1244 22.0344Z" fill="#191919"/>
<path d="M57.1251 19.501C57.0564 19.501 56.996 19.526 56.946 19.576C56.898 19.626 56.873 19.6844 56.873 19.7552C56.873 19.824 56.898 19.8844 56.946 19.9344C56.996 19.9823 57.0564 20.0073 57.1251 20.0073C57.196 20.0073 57.2564 19.9823 57.3064 19.9344C57.3543 19.8844 57.3793 19.824 57.3793 19.7552C57.3793 19.6844 57.3543 19.626 57.3064 19.576C57.2564 19.526 57.196 19.501 57.1251 19.501Z" fill="#191919"/>
<path d="M55.8557 20.7698C55.787 20.7698 55.7266 20.7948 55.6766 20.8427C55.6266 20.8927 55.6016 20.9531 55.6016 21.0219C55.6016 21.0927 55.6266 21.151 55.6766 21.201C55.7266 21.251 55.787 21.276 55.8557 21.276C55.9266 21.276 55.987 21.251 56.0349 21.201C56.0849 21.151 56.1099 21.0927 56.1099 21.0219C56.1099 20.9531 56.0849 20.8927 56.0349 20.8427C55.987 20.7948 55.9266 20.7698 55.8557 20.7698Z" fill="#191919"/>
<path d="M58.3967 20.7698C58.3259 20.7698 58.2655 20.7948 58.2155 20.8427C58.1676 20.8927 58.1426 20.9531 58.1426 21.0219C58.1426 21.0927 58.1676 21.151 58.2155 21.201C58.2655 21.251 58.3259 21.276 58.3967 21.276C58.4655 21.276 58.5259 21.251 58.5759 21.201C58.6259 21.151 58.6488 21.0927 58.6488 21.0219C58.6488 20.9531 58.6259 20.8927 58.5759 20.8427C58.5259 20.7948 58.4655 20.7698 58.3967 20.7698Z" fill="#191919"/>
<path d="M55.8557 18.2365C55.787 18.2365 55.7266 18.2615 55.6766 18.3115C55.6266 18.3615 55.6016 18.4198 55.6016 18.4906C55.6016 18.5614 55.6266 18.6198 55.6766 18.6698C55.7266 18.7198 55.787 18.7448 55.8557 18.7448C55.9266 18.7448 55.987 18.7198 56.0349 18.6698C56.0849 18.6198 56.1099 18.5614 56.1099 18.4906C56.1099 18.4198 56.0849 18.3615 56.0349 18.3115C55.987 18.2615 55.9266 18.2365 55.8557 18.2365Z" fill="#191919"/>
<path d="M58.3967 18.2365C58.3259 18.2365 58.2655 18.2615 58.2155 18.3115C58.1676 18.3615 58.1426 18.4198 58.1426 18.4906C58.1426 18.5614 58.1676 18.6198 58.2155 18.6698C58.2655 18.7198 58.3259 18.7448 58.3967 18.7448C58.4655 18.7448 58.5259 18.7198 58.5759 18.6698C58.6259 18.6198 58.6488 18.5614 58.6488 18.4906C58.6488 18.4198 58.6259 18.3615 58.5759 18.3115C58.5259 18.2615 58.4655 18.2365 58.3967 18.2365Z" fill="#191919"/>
<path d="M54.6342 22.0406C54.6176 22.0385 54.6009 22.0385 54.5842 22.0406C54.5488 22.0406 54.5155 22.0469 54.4842 22.0615C54.4384 22.0802 54.4009 22.1115 54.3717 22.1531C54.3426 22.1948 54.3301 22.2427 54.3301 22.2927C54.3301 22.3281 54.3363 22.3594 54.3488 22.3927C54.3759 22.4552 54.4217 22.501 54.4842 22.5281C54.5155 22.5406 54.5488 22.5469 54.5842 22.5469C54.6009 22.549 54.6176 22.549 54.6342 22.5469C54.7197 22.5281 54.778 22.4781 54.8113 22.3969C54.8259 22.3656 54.8322 22.3323 54.8322 22.299C54.8322 22.2469 54.8176 22.201 54.7884 22.1573C54.753 22.0969 54.7009 22.0594 54.6342 22.0406Z" fill="#191919"/>
<path d="M54.6342 19.5011C54.6176 19.499 54.6009 19.499 54.5842 19.5011C54.5488 19.5011 54.5155 19.5073 54.4842 19.5219C54.3822 19.5657 54.3301 19.6448 54.3301 19.7552C54.3301 19.8677 54.3822 19.9448 54.4842 19.9886C54.5155 20.0011 54.5488 20.0073 54.5842 20.0073C54.6009 20.0094 54.6176 20.0094 54.6342 20.0073C54.6926 19.9948 54.7426 19.9657 54.7801 19.9198C54.8176 19.874 54.8363 19.8198 54.8363 19.7594C54.8384 19.699 54.8197 19.6427 54.7822 19.5948C54.7447 19.5448 54.6947 19.5157 54.6342 19.5011Z" fill="#191919"/>
<path d="M57.1251 27.0989C57.0564 27.0989 56.996 27.1239 56.946 27.1719C56.898 27.2219 56.873 27.2823 56.873 27.351C56.873 27.4219 56.898 27.4802 56.946 27.5302C56.996 27.5802 57.0564 27.6052 57.1251 27.6052C57.196 27.6052 57.2564 27.5802 57.3064 27.5302C57.3543 27.4802 57.3793 27.4219 57.3793 27.351C57.3793 27.2823 57.3543 27.2219 57.3064 27.1719C57.2564 27.1239 57.196 27.0989 57.1251 27.0989Z" fill="#191919"/>
<path d="M57.1251 24.5677C57.0564 24.5677 56.996 24.5906 56.946 24.6406C56.898 24.6906 56.873 24.751 56.873 24.8198C56.873 24.8906 56.898 24.9489 56.946 24.9989C56.996 25.0489 57.0564 25.0739 57.1251 25.0739C57.196 25.0739 57.2564 25.0489 57.3064 24.9989C57.3543 24.9489 57.3793 24.8906 57.3793 24.8198C57.3793 24.751 57.3543 24.6906 57.3064 24.6406C57.2564 24.5906 57.196 24.5677 57.1251 24.5677Z" fill="#191919"/>
<path d="M55.8557 25.8302C55.787 25.8302 55.7266 25.8552 55.6766 25.9052C55.6266 25.9552 55.6016 26.0135 55.6016 26.0844C55.6016 26.1531 55.6266 26.2135 55.6766 26.2635C55.7266 26.3115 55.787 26.3365 55.8557 26.3365C55.9266 26.3365 55.987 26.3115 56.0349 26.2635C56.0849 26.2135 56.1099 26.1531 56.1099 26.0844C56.1099 26.0135 56.0849 25.9552 56.0349 25.9052C55.987 25.8552 55.9266 25.8302 55.8557 25.8302Z" fill="#191919"/>
<path d="M58.3967 25.8302C58.3259 25.8302 58.2655 25.8552 58.2155 25.9052C58.1676 25.9552 58.1426 26.0135 58.1426 26.0844C58.1426 26.1531 58.1676 26.2135 58.2155 26.2635C58.2655 26.3115 58.3259 26.3365 58.3967 26.3365C58.4655 26.3365 58.5259 26.3115 58.5759 26.2635C58.6259 26.2135 58.6488 26.1531 58.6488 26.0844C58.6488 26.0135 58.6259 25.9552 58.5759 25.9052C58.5259 25.8552 58.4655 25.8302 58.3967 25.8302Z" fill="#191919"/>
<path d="M55.8557 23.301C55.787 23.301 55.7266 23.326 55.6766 23.376C55.6266 23.4239 55.6016 23.4844 55.6016 23.5531C55.6016 23.6239 55.6266 23.6844 55.6766 23.7323C55.7266 23.7823 55.787 23.8073 55.8557 23.8073C55.9266 23.8073 55.987 23.7823 56.0349 23.7323C56.0849 23.6844 56.1099 23.6239 56.1099 23.5531C56.1099 23.4844 56.0849 23.4239 56.0349 23.376C55.987 23.326 55.9266 23.301 55.8557 23.301Z" fill="#191919"/>
<path d="M58.3967 23.301C58.3259 23.301 58.2655 23.326 58.2155 23.376C58.1676 23.4239 58.1426 23.4844 58.1426 23.5531C58.1426 23.6239 58.1676 23.6844 58.2155 23.7323C58.2655 23.7823 58.3259 23.8073 58.3967 23.8073C58.4655 23.8073 58.5259 23.7823 58.5759 23.7323C58.6259 23.6844 58.6488 23.6239 58.6488 23.5531C58.6488 23.4844 58.6259 23.4239 58.5759 23.376C58.5259 23.326 58.4655 23.301 58.3967 23.301Z" fill="#191919"/>
<path d="M54.6342 27.1031C54.6176 27.101 54.6009 27.101 54.5842 27.1031C54.5488 27.1031 54.5155 27.1115 54.4842 27.124C54.3822 27.1677 54.3301 27.2469 54.3301 27.3573C54.3301 27.4698 54.3822 27.5469 54.4842 27.5906C54.5155 27.6031 54.5488 27.6094 54.5842 27.6094C54.6009 27.6115 54.6176 27.6115 54.6342 27.6094C54.6926 27.599 54.7426 27.5677 54.7801 27.5219C54.8176 27.476 54.8363 27.4219 54.8363 27.3615C54.8384 27.301 54.8197 27.2448 54.7822 27.1969C54.7447 27.1469 54.6947 27.1177 54.6342 27.1031Z" fill="#191919"/>
<path d="M54.6342 24.5719C54.6176 24.5698 54.6009 24.5698 54.5842 24.5719C54.5488 24.5719 54.5155 24.5781 54.4842 24.5927C54.3822 24.6365 54.3301 24.7135 54.3301 24.826C54.3301 24.9385 54.3822 25.0156 54.4842 25.0594C54.5155 25.0719 54.5488 25.0781 54.5842 25.0781H54.6342C54.7676 25.049 54.8342 24.9656 54.8342 24.8302C54.8342 24.6927 54.7676 24.6115 54.6342 24.5802V24.5719Z" fill="#191919"/>
<path d="M57.1241 32.1594C57.0345 32.1614 56.9637 32.1989 56.9137 32.2719C56.8637 32.3489 56.8554 32.4281 56.8908 32.5114C56.9345 32.6135 57.0137 32.6656 57.1241 32.6656C57.2366 32.6656 57.3158 32.6135 57.3595 32.5114C57.372 32.4802 57.3783 32.4469 57.3783 32.4135C57.3783 32.3614 57.3637 32.3156 57.3345 32.2719C57.2845 32.1989 57.2158 32.1614 57.1241 32.1594Z" fill="#191919"/>
<path d="M57.1254 29.6302C57.0546 29.6302 56.9941 29.6552 56.9441 29.7031C56.8941 29.7531 56.8691 29.8135 56.8691 29.8844C56.8691 29.9552 56.8941 30.0156 56.9441 30.0656C56.9941 30.1156 57.0546 30.1406 57.1254 30.1406C57.1962 30.1406 57.2566 30.1156 57.3066 30.0635C57.3566 30.0135 57.3816 29.9531 57.3796 29.8844C57.3796 29.8135 57.3546 29.7531 57.3066 29.7052C57.2566 29.6552 57.1962 29.6302 57.1254 29.6302Z" fill="#191919"/>
<path d="M55.8557 30.8969C55.787 30.8969 55.7266 30.9198 55.6766 30.9698C55.6266 31.0198 55.6016 31.0781 55.6016 31.1489C55.6016 31.2177 55.6266 31.2781 55.6766 31.3281C55.7245 31.3781 55.7849 31.401 55.8557 31.4031C55.9245 31.4031 55.9849 31.3781 56.0349 31.3302C56.0849 31.2802 56.1099 31.2198 56.1099 31.151C56.1099 31.0802 56.087 31.0198 56.037 30.9698C55.987 30.9219 55.9266 30.8969 55.8557 30.8969Z" fill="#191919"/>
<path d="M58.3967 30.8969C58.3259 30.8969 58.2655 30.9198 58.2176 30.9698C58.1676 31.0198 58.1426 31.0781 58.1426 31.1489C58.1426 31.2177 58.1676 31.2781 58.2155 31.3281C58.2655 31.3781 58.3238 31.401 58.3947 31.4031C58.4655 31.4031 58.5238 31.3781 58.5738 31.3302C58.6238 31.2802 58.6488 31.2198 58.6488 31.151C58.6509 31.0802 58.6259 31.0198 58.5759 30.9698C58.5259 30.9219 58.4655 30.8969 58.3967 30.8969Z" fill="#191919"/>
<path d="M55.8557 28.3635C55.787 28.3635 55.7266 28.3885 55.6766 28.4385C55.6266 28.4885 55.6016 28.5469 55.6016 28.6177C55.6016 28.6864 55.6266 28.7469 55.6766 28.7969C55.7266 28.8469 55.787 28.8698 55.8557 28.8698C55.9266 28.8698 55.987 28.8469 56.0349 28.7969C56.0849 28.7469 56.1099 28.6864 56.1099 28.6177C56.1099 28.5469 56.0849 28.4885 56.0349 28.4385C55.987 28.3885 55.9266 28.3635 55.8557 28.3635Z" fill="#191919"/>
<path d="M58.3967 28.3635C58.3259 28.3635 58.2655 28.3885 58.2155 28.4385C58.1676 28.4885 58.1426 28.5469 58.1426 28.6177C58.1426 28.6864 58.1676 28.7469 58.2155 28.7969C58.2655 28.8469 58.3259 28.8698 58.3967 28.8698C58.4655 28.8698 58.5259 28.8469 58.5759 28.7969C58.6259 28.7469 58.6488 28.6864 58.6488 28.6177C58.6488 28.5469 58.6259 28.4885 58.5759 28.4385C58.5259 28.3885 58.4655 28.3635 58.3967 28.3635Z" fill="#191919"/>
<path d="M54.6335 32.1594C54.6169 32.1573 54.6002 32.1573 54.5835 32.1594C54.5398 32.1615 54.5002 32.1698 54.4627 32.1906C54.4252 32.2115 54.396 32.2386 54.371 32.274C54.3481 32.3094 54.3335 32.3469 54.3294 32.3906C54.3252 32.4323 54.3315 32.4719 54.3481 32.5115C54.3752 32.5761 54.421 32.6198 54.4835 32.6469C54.5148 32.6594 54.5481 32.6656 54.5835 32.6656C54.6002 32.6677 54.6169 32.6677 54.6335 32.6656C54.719 32.649 54.7773 32.599 54.8106 32.5177C54.8252 32.4865 54.8315 32.4531 54.8315 32.4177C54.8315 32.3677 54.8169 32.3198 54.7877 32.2781C54.7523 32.2177 54.7002 32.1781 54.6335 32.1594Z" fill="#191919"/>
<path d="M54.6342 29.6365C54.6176 29.6344 54.6009 29.6344 54.5842 29.6365C54.5488 29.6344 54.5155 29.6427 54.4842 29.6573C54.3822 29.701 54.3301 29.7781 54.3301 29.8885C54.3301 30.001 54.3822 30.0781 54.4842 30.1219C54.5155 30.1365 54.5488 30.1427 54.5842 30.1427C54.6009 30.1448 54.6176 30.1448 54.6342 30.1427C54.7676 30.1135 54.8342 30.0302 54.8342 29.8948C54.8342 29.7594 54.7676 29.676 54.6342 29.6469V29.6365Z" fill="#191919"/>
<path d="M55.8557 33.4281C55.787 33.4281 55.7266 33.4531 55.6766 33.501C55.6266 33.551 55.6016 33.6114 55.6016 33.6802C55.6016 33.751 55.6266 33.8094 55.6766 33.8594C55.7245 33.9094 55.7849 33.9344 55.8557 33.9344C55.9245 33.9344 55.9849 33.9094 56.0349 33.8614C56.0849 33.8114 56.1099 33.7531 56.1099 33.6823C56.1099 33.6114 56.087 33.5531 56.037 33.5031C55.987 33.4531 55.9266 33.4281 55.8557 33.4281Z" fill="#191919"/>
<path d="M58.3967 33.4281C58.3259 33.4281 58.2655 33.4531 58.2176 33.501C58.1676 33.551 58.1426 33.6114 58.1426 33.6802C58.1426 33.751 58.1676 33.8094 58.2155 33.8594C58.2655 33.9094 58.3238 33.9344 58.3947 33.9344C58.4655 33.9344 58.5238 33.9094 58.5738 33.8614C58.6238 33.8114 58.6488 33.7531 58.6488 33.6823C58.6509 33.6114 58.6259 33.5531 58.5759 33.5031C58.5259 33.4531 58.4655 33.4281 58.3967 33.4281Z" fill="#191919"/>
<path d="M52.0491 16.9719C51.9783 16.9719 51.9178 16.9969 51.8678 17.0448C51.8199 17.0948 51.7949 17.1552 51.7949 17.2239C51.7949 17.2948 51.8199 17.3552 51.8678 17.4031C51.9178 17.4531 51.9783 17.4781 52.0491 17.4781C52.1178 17.4781 52.1783 17.4531 52.2283 17.4031C52.2783 17.3552 52.3012 17.2948 52.3012 17.2239C52.3012 17.1552 52.2783 17.0948 52.2283 17.0448C52.1783 16.9969 52.1178 16.9719 52.0491 16.9719Z" fill="#191919"/>
<path d="M53.3185 15.7052C53.2476 15.7073 53.1893 15.7323 53.1393 15.7823C53.0914 15.8323 53.0664 15.8906 53.0685 15.9615C53.0685 16.0302 53.0935 16.0906 53.1435 16.1385C53.1935 16.1885 53.2539 16.2115 53.3226 16.2115C53.3935 16.2115 53.4518 16.1865 53.5018 16.1385C53.5518 16.0885 53.5747 16.0281 53.5747 15.9594C53.5747 15.8885 53.5497 15.8281 53.4997 15.7781C53.4497 15.7281 53.3893 15.7052 53.3185 15.7052Z" fill="#191919"/>
<path d="M53.3185 13.1719C53.2476 13.174 53.1893 13.199 53.1393 13.249C53.0914 13.299 53.0664 13.3573 53.0685 13.4281C53.0685 13.4969 53.0935 13.5552 53.1435 13.6052C53.1914 13.6531 53.2518 13.6781 53.3226 13.6781C53.3914 13.6781 53.4518 13.6531 53.4997 13.6052C53.5497 13.5552 53.5747 13.4969 53.5747 13.4281C53.5768 13.3573 53.5518 13.2948 53.4997 13.2448C53.4497 13.1948 53.3893 13.1719 53.3185 13.1719Z" fill="#191919"/>
<path d="M52.0505 22.0344C52.0067 22.0344 51.9671 22.0448 51.9296 22.0656C51.8921 22.0864 51.863 22.1135 51.838 22.1489C51.815 22.1844 51.8025 22.2219 51.7984 22.2656C51.7942 22.3073 51.7984 22.3469 51.815 22.3864C51.8588 22.4885 51.938 22.5406 52.0505 22.5406C52.1609 22.5406 52.24 22.4885 52.2838 22.3864C52.2963 22.3552 52.3046 22.3219 52.3025 22.2885C52.3046 22.2364 52.29 22.1906 52.2588 22.1469C52.2088 22.0739 52.14 22.0364 52.0505 22.0344Z" fill="#191919"/>
<path d="M52.0491 19.501C51.9783 19.501 51.9178 19.526 51.8678 19.576C51.8199 19.626 51.7949 19.6844 51.7949 19.7552C51.7949 19.824 51.8199 19.8844 51.8678 19.9344C51.9178 19.9823 51.9783 20.0073 52.0491 20.0073C52.1178 20.0073 52.1783 19.9823 52.2283 19.9344C52.2783 19.8844 52.3012 19.824 52.3012 19.7552C52.3012 19.6844 52.2783 19.626 52.2283 19.576C52.1783 19.526 52.1178 19.501 52.0491 19.501Z" fill="#191919"/>
<path d="M50.7794 20.7698C50.7107 20.7698 50.6503 20.7948 50.6003 20.8427C50.5503 20.8927 50.5273 20.9531 50.5273 21.0219C50.5273 21.0927 50.5503 21.151 50.6003 21.201C50.6503 21.251 50.7107 21.276 50.7794 21.276C50.8503 21.276 50.9107 21.251 50.9607 21.201C51.0086 21.151 51.0336 21.0927 51.0336 21.0219C51.0336 20.9531 51.0086 20.8927 50.9607 20.8427C50.9107 20.7948 50.8503 20.7698 50.7794 20.7698Z" fill="#191919"/>
<path d="M53.3186 20.7698C53.2478 20.7698 53.1874 20.7948 53.1395 20.8427C53.0895 20.8927 53.0645 20.9531 53.0645 21.0219C53.0645 21.0927 53.0895 21.151 53.1395 21.201C53.1874 21.251 53.2478 21.276 53.3186 21.276C53.3874 21.276 53.4478 21.251 53.4978 21.201C53.5478 21.151 53.5728 21.0927 53.5728 21.0219C53.5728 20.9531 53.5478 20.8927 53.4978 20.8427C53.4478 20.7948 53.3874 20.7698 53.3186 20.7698Z" fill="#191919"/>
<path d="M50.7794 18.2365C50.7107 18.2365 50.6503 18.2615 50.6003 18.3115C50.5503 18.3615 50.5273 18.4198 50.5273 18.4906C50.5273 18.5614 50.5503 18.6198 50.6003 18.6698C50.6503 18.7198 50.7107 18.7448 50.7794 18.7448C50.8503 18.7448 50.9107 18.7198 50.9607 18.6698C51.0086 18.6198 51.0336 18.5614 51.0336 18.4906C51.0336 18.4198 51.0086 18.3615 50.9607 18.3115C50.9107 18.2615 50.8503 18.2365 50.7794 18.2365Z" fill="#191919"/>
<path d="M53.3186 18.2365C53.2478 18.2365 53.1874 18.2615 53.1395 18.3115C53.0895 18.3615 53.0645 18.4198 53.0645 18.4906C53.0645 18.5614 53.0895 18.6198 53.1395 18.6698C53.1874 18.7198 53.2478 18.7448 53.3186 18.7448C53.3874 18.7448 53.4478 18.7198 53.4978 18.6698C53.5478 18.6198 53.5728 18.5614 53.5728 18.4906C53.5728 18.4198 53.5478 18.3615 53.4978 18.3115C53.4478 18.2615 53.3874 18.2365 53.3186 18.2365Z" fill="#191919"/>
<path d="M49.6528 22.0781C49.6111 22.0489 49.5632 22.0344 49.5111 22.0344C49.4695 22.0344 49.4299 22.0448 49.3924 22.0656C49.3549 22.0864 49.3236 22.1135 49.3007 22.1489C49.2778 22.1844 49.2632 22.2219 49.2591 22.2656C49.2549 22.3073 49.2611 22.3469 49.2778 22.3864C49.3091 22.4594 49.3632 22.5073 49.4382 22.5302C49.5153 22.5531 49.5861 22.5427 49.6528 22.4989C49.6945 22.4698 49.7257 22.4323 49.7466 22.3864C49.7591 22.3552 49.7653 22.3219 49.7653 22.2885C49.7653 22.2364 49.7507 22.1906 49.7216 22.1469C49.7049 22.1198 49.682 22.0969 49.6528 22.0781Z" fill="#191919"/>
<path d="M49.6513 19.5469C49.6097 19.5177 49.5617 19.5031 49.5097 19.5031C49.468 19.5031 49.4284 19.5114 49.393 19.5302C49.3555 19.5489 49.3242 19.5739 49.2992 19.6073C49.2742 19.6427 49.2597 19.6781 49.2534 19.7198C49.2472 19.7614 49.2492 19.801 49.2617 19.8406C49.2763 19.8802 49.2972 19.9135 49.3263 19.9427C49.3555 19.9719 49.3909 19.9927 49.4305 20.0052C49.4701 20.0177 49.5097 20.0198 49.5513 20.0135C49.593 20.0052 49.6284 19.9906 49.6617 19.9656C49.6951 19.9406 49.7201 19.9094 49.7388 19.8719C49.7576 19.8344 49.7659 19.7948 49.7638 19.7531C49.7638 19.7114 49.7534 19.6719 49.7326 19.6364C49.7138 19.601 49.6847 19.5698 49.6513 19.5469Z" fill="#191919"/>
<path d="M52.0491 27.0989C51.9783 27.0989 51.9178 27.1239 51.8678 27.1719C51.8199 27.2219 51.7949 27.2823 51.7949 27.351C51.7949 27.4219 51.8199 27.4802 51.8678 27.5302C51.9178 27.5802 51.9783 27.6052 52.0491 27.6052C52.1178 27.6052 52.1783 27.5802 52.2283 27.5302C52.2783 27.4802 52.3012 27.4219 52.3012 27.351C52.3012 27.2823 52.2783 27.2219 52.2283 27.1719C52.1783 27.1239 52.1178 27.0989 52.0491 27.0989Z" fill="#191919"/>
<path d="M52.0491 24.5677C51.9783 24.5677 51.9178 24.5906 51.8678 24.6406C51.8199 24.6906 51.7949 24.751 51.7949 24.8198C51.7949 24.8906 51.8199 24.9489 51.8678 24.9989C51.9178 25.0489 51.9783 25.0739 52.0491 25.0739C52.1178 25.0739 52.1783 25.0489 52.2283 24.9989C52.2783 24.9489 52.3012 24.8906 52.3012 24.8198C52.3012 24.751 52.2783 24.6906 52.2283 24.6406C52.1783 24.5906 52.1178 24.5677 52.0491 24.5677Z" fill="#191919"/>
<path d="M50.7794 25.8302C50.7107 25.8302 50.6503 25.8552 50.6003 25.9052C50.5503 25.9552 50.5273 26.0135 50.5273 26.0844C50.5273 26.1531 50.5503 26.2135 50.6003 26.2635C50.6503 26.3115 50.7107 26.3365 50.7794 26.3365C50.8503 26.3365 50.9107 26.3115 50.9607 26.2635C51.0086 26.2135 51.0336 26.1531 51.0336 26.0844C51.0336 26.0135 51.0086 25.9552 50.9607 25.9052C50.9107 25.8552 50.8503 25.8302 50.7794 25.8302Z" fill="#191919"/>
<path d="M53.3186 25.8302C53.2478 25.8302 53.1874 25.8552 53.1395 25.9052C53.0895 25.9552 53.0645 26.0135 53.0645 26.0844C53.0645 26.1531 53.0895 26.2135 53.1395 26.2635C53.1874 26.3115 53.2478 26.3365 53.3186 26.3365C53.3874 26.3365 53.4478 26.3115 53.4978 26.2635C53.5478 26.2135 53.5728 26.1531 53.5728 26.0844C53.5728 26.0135 53.5478 25.9552 53.4978 25.9052C53.4478 25.8552 53.3874 25.8302 53.3186 25.8302Z" fill="#191919"/>
<path d="M50.7794 23.301C50.7107 23.301 50.6503 23.326 50.6003 23.376C50.5503 23.4239 50.5273 23.4844 50.5273 23.5531C50.5273 23.6239 50.5503 23.6844 50.6003 23.7323C50.6503 23.7823 50.7107 23.8073 50.7794 23.8073C50.8503 23.8073 50.9107 23.7823 50.9607 23.7323C51.0086 23.6844 51.0336 23.6239 51.0336 23.5531C51.0336 23.4844 51.0086 23.4239 50.9607 23.376C50.9107 23.326 50.8503 23.301 50.7794 23.301Z" fill="#191919"/>
<path d="M53.3186 23.301C53.2478 23.301 53.1874 23.326 53.1395 23.376C53.0895 23.4239 53.0645 23.4844 53.0645 23.5531C53.0645 23.6239 53.0895 23.6844 53.1395 23.7323C53.1874 23.7823 53.2478 23.8073 53.3186 23.8073C53.3874 23.8073 53.4478 23.7823 53.4978 23.7323C53.5478 23.6844 53.5728 23.6239 53.5728 23.5531C53.5728 23.4844 53.5478 23.4239 53.4978 23.376C53.4478 23.326 53.3874 23.301 53.3186 23.301Z" fill="#191919"/>
<path d="M49.6513 27.1427C49.6097 27.1135 49.5617 27.0989 49.5097 27.0989C49.468 27.0989 49.4284 27.1073 49.393 27.126C49.3555 27.1448 49.3242 27.1698 49.2992 27.2031C49.2742 27.2364 49.2597 27.2739 49.2534 27.3156C49.2472 27.3552 49.2492 27.3969 49.2617 27.4344C49.2763 27.4739 49.2972 27.5094 49.3263 27.5385C49.3555 27.5677 49.3909 27.5885 49.4305 27.601C49.4701 27.6114 49.5097 27.6156 49.5513 27.6073C49.593 27.601 49.6284 27.5844 49.6617 27.5594C49.6951 27.5344 49.7201 27.5031 49.7388 27.4656C49.7576 27.4281 49.7659 27.3906 49.7638 27.3489C49.7638 27.3073 49.7534 27.2677 49.7326 27.2323C49.7138 27.1948 49.6847 27.1656 49.6513 27.1427Z" fill="#191919"/>
<path d="M49.6513 24.6115C49.6097 24.5802 49.5617 24.5656 49.5097 24.5677C49.468 24.5656 49.4284 24.576 49.393 24.5948C49.3555 24.6115 49.3242 24.6385 49.2992 24.6719C49.2742 24.7052 49.2597 24.7427 49.2534 24.7823C49.2472 24.824 49.2492 24.8635 49.2617 24.9031C49.2763 24.9427 49.2972 24.9781 49.3263 25.0073C49.3555 25.0344 49.3909 25.0552 49.4305 25.0677C49.4701 25.0802 49.5097 25.0844 49.5513 25.076C49.593 25.0698 49.6284 25.0531 49.6617 25.0281C49.6951 25.0031 49.7201 24.9719 49.7388 24.9344C49.7576 24.8969 49.7659 24.8573 49.7638 24.8156C49.7638 24.776 49.7534 24.7365 49.7326 24.699C49.7138 24.6635 49.6847 24.6344 49.6513 24.6115Z" fill="#191919"/>
<path d="M52.0505 32.1594C51.9588 32.1614 51.888 32.1989 51.838 32.2719C51.788 32.3489 51.7796 32.4281 51.813 32.5114C51.8588 32.6135 51.9359 32.6656 52.0484 32.6656C52.1588 32.6656 52.238 32.6135 52.2817 32.5114C52.2963 32.4802 52.3026 32.4469 52.3026 32.4135C52.3026 32.3614 52.288 32.3156 52.2567 32.2719C52.2088 32.1989 52.138 32.1614 52.0505 32.1594Z" fill="#191919"/>
<path d="M52.0493 29.6302C51.9785 29.6302 51.9181 29.6552 51.866 29.7031C51.816 29.7531 51.791 29.8135 51.791 29.8844C51.791 29.9552 51.816 30.0156 51.866 30.0656C51.916 30.1156 51.9764 30.1406 52.0473 30.1406C52.1181 30.1406 52.1785 30.1156 52.2285 30.0635C52.2785 30.0135 52.3035 29.9531 52.3014 29.8844C52.3014 29.8135 52.2785 29.7531 52.2285 29.7052C52.1785 29.6552 52.1181 29.6302 52.0493 29.6302Z" fill="#191919"/>
<path d="M50.7794 30.8969C50.7107 30.8969 50.6503 30.9198 50.6003 30.9698C50.5523 31.0198 50.5273 31.0781 50.5273 31.1489C50.5273 31.2177 50.5503 31.2781 50.6003 31.3281C50.6503 31.3781 50.7086 31.401 50.7794 31.4031C50.8482 31.4031 50.9086 31.3781 50.9586 31.3302C51.0086 31.2802 51.0336 31.2198 51.0336 31.151C51.0357 31.0802 51.0107 31.0198 50.9607 30.9698C50.9107 30.9219 50.8503 30.8969 50.7794 30.8969Z" fill="#191919"/>
<path d="M53.3186 30.8969C53.2478 30.8969 53.1895 30.9198 53.1395 30.9698C53.0895 31.0198 53.0645 31.0781 53.0645 31.1489C53.0645 31.2177 53.0895 31.2781 53.1374 31.3281C53.1874 31.3781 53.2478 31.401 53.3165 31.4031C53.3874 31.4031 53.4478 31.3781 53.4978 31.3302C53.5457 31.2802 53.5707 31.2198 53.5728 31.151C53.5728 31.0802 53.5478 31.0198 53.4978 30.9698C53.4478 30.9219 53.3895 30.8969 53.3186 30.8969Z" fill="#191919"/>
<path d="M50.7794 28.3635C50.7107 28.3635 50.6503 28.3885 50.6003 28.4385C50.5503 28.4885 50.5273 28.5469 50.5273 28.6177C50.5273 28.6864 50.5503 28.7469 50.6003 28.7969C50.6503 28.8469 50.7107 28.8698 50.7794 28.8698C50.8503 28.8698 50.9107 28.8469 50.9607 28.7969C51.0086 28.7469 51.0336 28.6864 51.0336 28.6177C51.0336 28.5469 51.0086 28.4885 50.9607 28.4385C50.9107 28.3885 50.8503 28.3635 50.7794 28.3635Z" fill="#191919"/>
<path d="M53.3186 28.3635C53.2478 28.3635 53.1874 28.3885 53.1395 28.4385C53.0895 28.4885 53.0645 28.5469 53.0645 28.6177C53.0645 28.6864 53.0895 28.7469 53.1395 28.7969C53.1874 28.8469 53.2478 28.8698 53.3186 28.8698C53.3874 28.8698 53.4478 28.8469 53.4978 28.7969C53.5478 28.7469 53.5728 28.6864 53.5728 28.6177C53.5728 28.5469 53.5478 28.4885 53.4978 28.4385C53.4478 28.3885 53.3874 28.3635 53.3186 28.3635Z" fill="#191919"/>
<path d="M49.6525 32.2052C49.5942 32.1656 49.5317 32.1531 49.4608 32.1656C49.3921 32.1802 49.3379 32.2156 49.3004 32.2739C49.2504 32.351 49.2421 32.4302 49.2775 32.5135C49.3088 32.5864 49.3629 32.6344 49.4379 32.6573C49.515 32.6802 49.5858 32.6698 49.6525 32.626C49.6942 32.5969 49.7254 32.5594 49.7463 32.5135C49.7588 32.4823 49.765 32.4489 49.765 32.4156C49.765 32.3635 49.7504 32.3177 49.7213 32.2739C49.7025 32.2469 49.6796 32.2239 49.6525 32.2052Z" fill="#191919"/>
<path d="M49.6523 29.6739C49.6086 29.6448 49.5628 29.6302 49.5107 29.6302C49.444 29.6364 49.3898 29.6635 49.344 29.7114C49.3003 29.7594 49.2773 29.8177 49.2773 29.8844C49.2773 29.951 49.3003 30.0073 49.344 30.0573C49.3898 30.1052 49.444 30.1323 49.5107 30.1385C49.5628 30.1385 49.6086 30.1239 49.6523 30.0948C49.6878 30.0698 49.7148 30.0406 49.7336 30.0031C49.7544 29.9656 49.7648 29.926 49.7648 29.8844C49.7648 29.8427 49.7544 29.8031 49.7336 29.7656C49.7148 29.7281 49.6878 29.6969 49.6523 29.6739Z" fill="#191919"/>
<path d="M50.7794 33.4281C50.7107 33.4281 50.6503 33.4531 50.6003 33.501C50.5523 33.551 50.5273 33.6114 50.5273 33.6802C50.5273 33.751 50.5503 33.8094 50.6003 33.8594C50.6503 33.9094 50.7086 33.9344 50.7794 33.9344C50.8482 33.9344 50.9086 33.9094 50.9586 33.8614C51.0086 33.8114 51.0336 33.7531 51.0336 33.6823C51.0357 33.6114 51.0107 33.5531 50.9607 33.5031C50.9107 33.4531 50.8503 33.4281 50.7794 33.4281Z" fill="#191919"/>
<path d="M53.3186 33.4281C53.2478 33.4281 53.1895 33.4531 53.1395 33.501C53.0895 33.551 53.0645 33.6114 53.0645 33.6802C53.0645 33.751 53.0895 33.8094 53.1374 33.8594C53.1874 33.9094 53.2478 33.9344 53.3165 33.9344C53.3874 33.9344 53.4478 33.9094 53.4978 33.8614C53.5457 33.8114 53.5707 33.7531 53.5728 33.6823C53.5728 33.6114 53.5478 33.5531 53.4978 33.5031C53.4478 33.4531 53.3895 33.4281 53.3186 33.4281Z" fill="#191919"/>
<path d="M46.9729 27.0989C46.9021 27.0989 46.8417 27.1239 46.7937 27.1719C46.7437 27.2219 46.7188 27.2823 46.7188 27.351C46.7188 27.4219 46.7437 27.4802 46.7937 27.5302C46.8417 27.5802 46.9021 27.6052 46.9729 27.6052C47.0417 27.6052 47.1021 27.5802 47.1521 27.5302C47.2021 27.4802 47.2271 27.4219 47.2271 27.351C47.2271 27.2823 47.2021 27.2219 47.1521 27.1719C47.1021 27.1239 47.0417 27.0989 46.9729 27.0989Z" fill="#191919"/>
<path d="M46.9729 24.5677C46.9021 24.5677 46.8417 24.5906 46.7937 24.6406C46.7437 24.6906 46.7188 24.751 46.7188 24.8198C46.7188 24.8906 46.7437 24.9489 46.7937 24.9989C46.8417 25.0489 46.9021 25.0739 46.9729 25.0739C47.0417 25.0739 47.1021 25.0489 47.1521 24.9989C47.2021 24.9489 47.2271 24.8906 47.2271 24.8198C47.2271 24.751 47.2021 24.6906 47.1521 24.6406C47.1021 24.5906 47.0417 24.5677 46.9729 24.5677Z" fill="#191919"/>
<path d="M45.7034 25.8302C45.6326 25.8302 45.5721 25.8552 45.5221 25.9052C45.4742 25.9552 45.4492 26.0135 45.4492 26.0844C45.4492 26.1531 45.4742 26.2135 45.5221 26.2635C45.5721 26.3115 45.6326 26.3365 45.7034 26.3365C45.7721 26.3365 45.8326 26.3115 45.8826 26.2635C45.9326 26.2135 45.9555 26.1531 45.9555 26.0844C45.9555 26.0135 45.9326 25.9552 45.8826 25.9052C45.8326 25.8552 45.7721 25.8302 45.7034 25.8302Z" fill="#191919"/>
<path d="M48.2424 25.8302C48.1716 25.8302 48.1133 25.8552 48.0633 25.9052C48.0133 25.9552 47.9883 26.0135 47.9883 26.0844C47.9883 26.1531 48.0133 26.2135 48.0633 26.2635C48.1133 26.3115 48.1716 26.3365 48.2424 26.3365C48.3133 26.3365 48.3716 26.3115 48.4216 26.2635C48.4716 26.2135 48.4966 26.1531 48.4966 26.0844C48.4966 26.0135 48.4716 25.9552 48.4216 25.9052C48.3716 25.8552 48.3133 25.8302 48.2424 25.8302Z" fill="#191919"/>
<path d="M48.2424 23.301C48.1716 23.301 48.1133 23.326 48.0633 23.376C48.0133 23.4239 47.9883 23.4844 47.9883 23.5531C47.9883 23.6239 48.0133 23.6844 48.0633 23.7323C48.1133 23.7823 48.1716 23.8073 48.2424 23.8073C48.3133 23.8073 48.3716 23.7823 48.4216 23.7323C48.4716 23.6844 48.4966 23.6239 48.4966 23.5531C48.4966 23.4844 48.4716 23.4239 48.4216 23.376C48.3716 23.326 48.3133 23.301 48.2424 23.301Z" fill="#191919"/>
<path d="M46.973 32.1594C46.8813 32.1614 46.8125 32.1989 46.7605 32.2719C46.7105 32.3489 46.7042 32.4281 46.7375 32.5114C46.7834 32.6135 46.8605 32.6656 46.973 32.6656C47.0834 32.6656 47.1625 32.6135 47.2063 32.5114C47.2209 32.4802 47.2271 32.4469 47.2271 32.4135C47.2271 32.3614 47.2125 32.3156 47.1834 32.2719C47.1334 32.1989 47.0625 32.1614 46.973 32.1594Z" fill="#191919"/>
<path d="M46.9732 29.6302C46.9023 29.6302 46.8419 29.6552 46.7919 29.7031C46.7398 29.7531 46.7148 29.8135 46.7148 29.8844C46.7148 29.9552 46.7398 30.0156 46.7898 30.0656C46.8398 30.1156 46.9003 30.1406 46.9711 30.1406C47.0419 30.1406 47.1023 30.1156 47.1523 30.0635C47.2023 30.0135 47.2273 29.9531 47.2273 29.8844C47.2273 29.8135 47.2023 29.7531 47.1523 29.7052C47.1023 29.6552 47.0419 29.6302 46.9732 29.6302Z" fill="#191919"/>
<path d="M45.7034 30.8969C45.6326 30.8969 45.5721 30.9198 45.5242 30.9698C45.4742 31.0198 45.4492 31.0781 45.4492 31.1489C45.4492 31.2177 45.4742 31.2781 45.5221 31.3281C45.5721 31.3781 45.6305 31.401 45.7013 31.4031C45.7721 31.4031 45.8305 31.3781 45.8805 31.3302C45.9305 31.2802 45.9555 31.2198 45.9555 31.151C45.9576 31.0802 45.9326 31.0198 45.8826 30.9698C45.8326 30.9219 45.7721 30.8969 45.7034 30.8969Z" fill="#191919"/>
<path d="M48.2424 30.8969C48.1716 30.8969 48.1133 30.9198 48.0633 30.9698C48.0133 31.0198 47.9883 31.0781 47.9883 31.1489C47.9883 31.2177 48.0133 31.2781 48.0633 31.3281C48.1112 31.3781 48.1716 31.401 48.2404 31.4031C48.3112 31.4031 48.3716 31.3781 48.4216 31.3302C48.4716 31.2802 48.4966 31.2198 48.4966 31.151C48.4966 31.0802 48.4716 31.0198 48.4216 30.9698C48.3737 30.9219 48.3133 30.8969 48.2424 30.8969Z" fill="#191919"/>
<path d="M45.7034 28.3635C45.6326 28.3635 45.5721 28.3885 45.5221 28.4385C45.4742 28.4885 45.4492 28.5469 45.4492 28.6177C45.4492 28.6864 45.4742 28.7469 45.5221 28.7969C45.5721 28.8469 45.6326 28.8698 45.7034 28.8698C45.7721 28.8698 45.8326 28.8469 45.8826 28.7969C45.9326 28.7469 45.9555 28.6864 45.9555 28.6177C45.9555 28.5469 45.9326 28.4885 45.8826 28.4385C45.8326 28.3885 45.7721 28.3635 45.7034 28.3635Z" fill="#191919"/>
<path d="M48.2424 28.3635C48.1716 28.3635 48.1133 28.3885 48.0633 28.4385C48.0133 28.4885 47.9883 28.5469 47.9883 28.6177C47.9883 28.6864 48.0133 28.7469 48.0633 28.7969C48.1133 28.8469 48.1716 28.8698 48.2424 28.8698C48.3133 28.8698 48.3716 28.8469 48.4216 28.7969C48.4716 28.7469 48.4966 28.6864 48.4966 28.6177C48.4966 28.5469 48.4716 28.4885 48.4216 28.4385C48.3716 28.3885 48.3133 28.3635 48.2424 28.3635Z" fill="#191919"/>
<path d="M44.4851 32.1594C44.4684 32.1573 44.4518 32.1573 44.433 32.1594C44.3914 32.1615 44.3518 32.1698 44.3143 32.1906C44.2768 32.2115 44.2476 32.2386 44.2226 32.274C44.1997 32.3094 44.1851 32.3469 44.1809 32.3906C44.1768 32.4323 44.183 32.4719 44.1997 32.5115C44.2268 32.5761 44.2726 32.6198 44.3351 32.6469C44.3664 32.6594 44.3997 32.6656 44.433 32.6656C44.4518 32.6677 44.4684 32.6677 44.4851 32.6656C44.5705 32.6469 44.6289 32.5969 44.6622 32.5177C44.6747 32.4865 44.6809 32.4531 44.6809 32.4177C44.6809 32.3677 44.6664 32.3198 44.6372 32.2781C44.6018 32.2177 44.5518 32.1781 44.4851 32.1594Z" fill="#191919"/>
<path d="M44.4858 29.6365C44.4691 29.6344 44.4525 29.6344 44.4337 29.6365C44.4004 29.6344 44.3671 29.6427 44.3358 29.6573C44.2337 29.701 44.1816 29.7781 44.1816 29.8885C44.1816 30.001 44.2337 30.0781 44.3358 30.1219C44.3671 30.1365 44.4004 30.1427 44.4337 30.1427C44.4525 30.1448 44.4691 30.1448 44.4858 30.1427C44.6191 30.1135 44.6858 30.0302 44.6858 29.8948C44.6858 29.7594 44.6191 29.676 44.4858 29.6469V29.6365Z" fill="#191919"/>
<path d="M45.7034 33.4281C45.6326 33.4281 45.5721 33.4531 45.5242 33.501C45.4742 33.551 45.4492 33.6114 45.4492 33.6802C45.4492 33.751 45.4742 33.8094 45.5221 33.8594C45.5721 33.9094 45.6305 33.9344 45.7013 33.9344C45.7721 33.9344 45.8305 33.9094 45.8805 33.8614C45.9305 33.8114 45.9555 33.7531 45.9555 33.6823C45.9576 33.6114 45.9326 33.5531 45.8826 33.5031C45.8326 33.4531 45.7721 33.4281 45.7034 33.4281Z" fill="#191919"/>
<path d="M48.2424 33.4281C48.1716 33.4281 48.1133 33.4531 48.0633 33.501C48.0133 33.551 47.9883 33.6114 47.9883 33.6802C47.9883 33.751 48.0133 33.8094 48.0633 33.8594C48.1112 33.9094 48.1716 33.9344 48.2404 33.9344C48.3112 33.9344 48.3716 33.9094 48.4216 33.8614C48.4716 33.8114 48.4966 33.7531 48.4966 33.6823C48.4966 33.6114 48.4716 33.5531 48.4216 33.5031C48.3737 33.4531 48.3133 33.4281 48.2424 33.4281Z" fill="#191919"/>
<path d="M43.1643 30.8969C43.0956 30.8969 43.0352 30.9198 42.9852 30.9698C42.9352 31.0198 42.9102 31.0781 42.9102 31.1489C42.9102 31.2177 42.9352 31.2781 42.9852 31.3281C43.0331 31.3781 43.0935 31.401 43.1643 31.4031C43.2331 31.4031 43.2935 31.3781 43.3435 31.3302C43.3935 31.2802 43.4185 31.2198 43.4185 31.151C43.4185 31.0802 43.3956 31.0198 43.3456 30.9698C43.2956 30.9219 43.2352 30.8969 43.1643 30.8969Z" fill="#191919"/>
<path d="M43.1643 33.4281C43.0956 33.4281 43.0352 33.4531 42.9852 33.501C42.9352 33.551 42.9102 33.6114 42.9102 33.6802C42.9102 33.751 42.9352 33.8094 42.9852 33.8594C43.0331 33.9094 43.0935 33.9344 43.1643 33.9344C43.2331 33.9344 43.2935 33.9094 43.3435 33.8614C43.3935 33.8114 43.4185 33.7531 43.4185 33.6823C43.4185 33.6114 43.3956 33.5531 43.3456 33.5031C43.2956 33.4531 43.2352 33.4281 43.1643 33.4281Z" fill="#191919"/>
</svg>
