<svg width="44" height="28" viewBox="0 0 44 28" fill="none" xmlns="http://www.w3.org/2000/svg">
<path d="M0 16.3057C0 23.1217 3.84 27.2497 9.696 27.2497C14.88 27.2497 18.336 24.0817 18.336 19.5697C18.336 15.6337 15.264 12.4657 11.04 12.4657C10.368 12.4657 9.6 12.5617 8.832 12.7537C9.984 8.33767 14.304 6.12967 19.968 6.89767V0.177669C9.312 -1.26234 0 6.22567 0 16.3057ZM23.232 16.3057C23.232 23.1217 27.072 27.2497 32.928 27.2497C38.208 27.2497 41.568 24.0817 41.568 19.5697C41.568 15.6337 38.496 12.4657 34.272 12.4657C33.6 12.4657 32.832 12.5617 32.064 12.7537C33.216 8.33767 37.536 6.12967 43.2 6.89767V0.177669C32.544 -1.26234 23.232 6.22567 23.232 16.3057Z" fill="black"/>
</svg>
